<svg xmlns="http://www.w3.org/2000/svg" width="256.095" height="59.728" viewBox="0 0 256.095 59.728"><g transform="translate(-181.324 -420.807)"><g transform="translate(253.007 438.724)"><path d="M421.9,483.276a7.481,7.481,0,0,0-7.473-7.472H404.358a3,3,0,0,0-3,3v17.9a3,3,0,0,0,3,3h11.187A7.48,7.48,0,0,0,420.9,487,7.361,7.361,0,0,0,421.9,483.276ZM415.546,493.7h-8.19v-2.955h8.19a1.477,1.477,0,1,1,0,2.955Zm-8.19-8.95V481.8h7.071a1.477,1.477,0,1,1,0,2.955Z" transform="translate(-401.361 -475.804)"/><path d="M489.361,493.7H478.933V478.8a3,3,0,0,0-6,0v17.9a3,3,0,0,0,3,3h13.425a3,3,0,1,0,0-6Z" transform="translate(-449.62 -475.804)"/><path d="M547.619,475.8a10.841,10.841,0,0,0-10.829,10.829V496.7a3,3,0,0,0,6,0v-3.715h9.667V496.7a3,3,0,1,0,5.995,0V486.633A10.841,10.841,0,0,0,547.619,475.8Zm-4.834,10.829a4.834,4.834,0,1,1,9.667,0v.359h-9.667Z" transform="translate(-492.671 -475.804)"/><path d="M620.758,481.8a5.8,5.8,0,0,1,4.2,1.713,2.858,2.858,0,0,0,2.131.909,2.985,2.985,0,0,0,2.107-5.113,11.942,11.942,0,1,0-8.434,20.391,11.863,11.863,0,0,0,8.438-3.509,2.971,2.971,0,0,0,.887-2.111,3.076,3.076,0,0,0-3-3,2.97,2.97,0,0,0-2.11.887,5.957,5.957,0,1,1-4.217-10.17Z" transform="translate(-541.228 -475.804)"/><path d="M703.546,478.8a2.985,2.985,0,0,0-5.108-2.111l-12.792,12.792V478.8a3,3,0,1,0-5.995,0v17.9a3,3,0,0,0,3,3,2.881,2.881,0,0,0,2.111-.887l6.839-6.84,6.819,6.818a2.9,2.9,0,0,0,2.132.909,3,3,0,0,0,3-3,2.88,2.88,0,0,0-.887-2.111l-6.839-6.839,6.839-6.839A2.971,2.971,0,0,0,703.546,478.8Z" transform="translate(-588.991 -475.804)"/><path d="M768.222,475.8h-6.713a3,3,0,0,0-3,3v17.9a3,3,0,0,0,3,3h6.713a11.947,11.947,0,0,0,0-23.895Zm0,17.9h-3.715V481.8h3.715a5.952,5.952,0,1,1,0,11.9Z" transform="translate(-642.161 -475.804)"/><path d="M842.276,475.8a11.947,11.947,0,1,0,11.948,11.947A11.961,11.961,0,0,0,842.276,475.8Zm0,17.9a5.952,5.952,0,1,1,5.953-5.952A5.959,5.959,0,0,1,842.276,493.7Z" transform="translate(-690.582 -475.804)"/><path d="M919.615,475.8H903.953a3,3,0,1,0,0,5.995h4.833v14.9a3,3,0,1,0,5.995,0V481.8h4.834a3,3,0,1,0,0-5.995Z" transform="translate(-738.2 -475.804)"/></g><g transform="translate(181.324 420.807)"><path d="M345.178,566.623a.2.2,0,1,0-.2-.2A.2.2,0,0,0,345.178,566.623Z" transform="translate(-291.663 -518.849)"/><path d="M326.932,584.868a.2.2,0,1,0-.2-.2A.2.2,0,0,0,326.932,584.868Z" transform="translate(-279.362 -531.151)"/><circle cx="0.19" cy="0.19" r="0.19" transform="translate(23.633 59.261)"/><circle cx="0.277" cy="0.277" r="0.277" transform="translate(29.474 59.174)"/><circle cx="0.19" cy="0.19" r="0.19" transform="translate(35.495 59.261)"/><circle cx="0.19" cy="0.19" r="0.19" transform="translate(23.633 0.087)"/><circle cx="0.277" cy="0.277" r="0.277" transform="translate(29.474)"/><circle cx="0.19" cy="0.19" r="0.19" transform="translate(35.495 0.087)"/><path d="M235.061,438.57a.511.511,0,1,0-.511-.511A.511.511,0,0,0,235.061,438.57Z" transform="translate(-217.21 -432.094)"/><path d="M252.522,438.165a.89.89,0,1,0-.89-.89A.89.89,0,0,0,252.522,438.165Z" transform="translate(-228.728 -431.31)"/><path d="M270.392,437.971a1.071,1.071,0,1,0-1.071-1.071A1.071,1.071,0,0,0,270.392,437.971Z" transform="translate(-240.654 -430.935)"/><path d="M288.842,438.077a.972.972,0,1,0-.972-.972A.973.973,0,0,0,288.842,438.077Z" transform="translate(-253.16 -431.14)"/><path d="M307.8,438.447a.626.626,0,1,0-.626-.626A.626.626,0,0,0,307.8,438.447Z" transform="translate(-266.178 -431.856)"/><path d="M216.3,456.551a.758.758,0,1,0-.758-.758A.758.758,0,0,0,216.3,456.551Z" transform="translate(-204.397 -443.884)"/><circle cx="1.417" cy="1.417" r="1.417" transform="translate(16.433 10.491)"/><path d="M250.407,455.317a1.912,1.912,0,1,0-1.912-1.912A1.912,1.912,0,0,0,250.407,455.317Z" transform="translate(-226.613 -441.496)"/><circle cx="2.093" cy="2.093" r="2.093" transform="translate(27.645 9.815)"/><circle cx="1.978" cy="1.978" r="1.978" transform="translate(33.705 9.931)"/><circle cx="1.582" cy="1.582" r="1.582" transform="translate(40.044 10.326)"/><path d="M325.4,456.358a.939.939,0,1,0-.94-.94A.939.939,0,0,0,325.4,456.358Z" transform="translate(-277.832 -443.51)"/><path d="M198.569,475.062a.511.511,0,1,0-.511-.511A.511.511,0,0,0,198.569,475.062Z" transform="translate(-192.607 -456.698)"/><path d="M214.938,474.092a1.417,1.417,0,1,0-1.417-1.417A1.418,1.418,0,0,0,214.938,474.092Z" transform="translate(-203.032 -454.822)"/><circle cx="2.225" cy="2.225" r="2.225" transform="translate(15.625 15.628)"/><path d="M248.565,472.611a2.8,2.8,0,1,0-2.8-2.8A2.8,2.8,0,0,0,248.565,472.611Z" transform="translate(-224.771 -451.956)"/><circle cx="3.016" cy="3.016" r="3.016" transform="translate(26.722 14.836)"/><path d="M284.885,472.523A2.884,2.884,0,1,0,282,469.638,2.885,2.885,0,0,0,284.885,472.523Z" transform="translate(-249.203 -451.786)"/><path d="M304.189,473.069a2.374,2.374,0,1,0-2.374-2.374A2.374,2.374,0,0,0,304.189,473.069Z" transform="translate(-262.562 -452.843)"/><path d="M323.97,473.863a1.632,1.632,0,1,0-1.632-1.632A1.632,1.632,0,0,0,323.97,473.863Z" transform="translate(-276.399 -454.378)"/><circle cx="0.758" cy="0.758" r="0.758" transform="translate(52.756 17.095)"/><path d="M197.785,492.9a.89.89,0,1,0-.89-.89A.89.89,0,0,0,197.785,492.9Z" transform="translate(-191.823 -468.215)"/><path d="M213.915,491.809A1.912,1.912,0,1,0,212,489.9,1.912,1.912,0,0,0,213.915,491.809Z" transform="translate(-202.009 -466.1)"/><path d="M230.319,490.857a2.8,2.8,0,1,0-2.8-2.8A2.8,2.8,0,0,0,230.319,490.857Z" transform="translate(-212.469 -464.258)"/><path d="M247.3,490.2a3.412,3.412,0,1,0-3.412-3.412A3.412,3.412,0,0,0,247.3,490.2Z" transform="translate(-223.508 -462.996)"/><path d="M265.037,489.94a3.659,3.659,0,1,0-3.659-3.659A3.659,3.659,0,0,0,265.037,489.94Z" transform="translate(-235.299 -462.484)"/><path d="M283.59,490.1a3.511,3.511,0,1,0-3.511-3.511A3.511,3.511,0,0,0,283.59,490.1Z" transform="translate(-247.907 -462.791)"/><path d="M302.961,490.681a2.967,2.967,0,1,0-2.967-2.967A2.967,2.967,0,0,0,302.961,490.681Z" transform="translate(-261.334 -463.917)"/><path d="M322.913,491.562a2.143,2.143,0,1,0-2.143-2.143A2.143,2.143,0,0,0,322.913,491.562Z" transform="translate(-275.342 -465.623)"/><path d="M343.2,492.619a1.154,1.154,0,1,0-1.154-1.154A1.153,1.153,0,0,0,343.2,492.619Z" transform="translate(-289.69 -467.669)"/><path d="M197.409,510.954a1.071,1.071,0,1,0-1.071-1.071A1.071,1.071,0,0,0,197.409,510.954Z" transform="translate(-191.447 -480.142)"/><circle cx="2.093" cy="2.093" r="2.093" transform="translate(9.174 28.601) rotate(-22.35)"/><circle cx="3.016" cy="3.016" r="3.016" transform="translate(14.834 26.724)"/><path d="M246.791,508.186a3.659,3.659,0,1,0-3.659-3.659A3.659,3.659,0,0,0,246.791,508.186Z" transform="translate(-222.997 -474.786)"/><circle cx="4.005" cy="4.005" r="4.005" transform="translate(25.733 25.735)"/><path d="M283.043,508.062a3.775,3.775,0,1,0-3.774-3.774A3.775,3.775,0,0,0,283.043,508.062Z" transform="translate(-247.361 -474.547)"/><path d="M302.449,508.662a3.214,3.214,0,1,0-3.214-3.214A3.214,3.214,0,0,0,302.449,508.662Z" transform="translate(-260.823 -475.707)"/><circle cx="2.341" cy="2.341" r="2.341" transform="translate(45.23 27.4)"/><circle cx="1.319" cy="1.319" r="1.319" transform="translate(51.794 30.46) rotate(-67.672)"/><path d="M197.614,529.305a.973.973,0,1,0-.972-.973A.973.973,0,0,0,197.614,529.305Z" transform="translate(-191.652 -492.648)"/><circle cx="1.978" cy="1.978" r="1.978" transform="translate(9.325 34.608) rotate(-22.358)"/><path d="M230.148,527.26a2.885,2.885,0,1,0-2.884-2.885A2.885,2.885,0,0,0,230.148,527.26Z" transform="translate(-212.298 -488.691)"/><path d="M247.1,526.59a3.511,3.511,0,1,0-3.511-3.511A3.511,3.511,0,0,0,247.1,526.59Z" transform="translate(-223.303 -487.395)"/><path d="M264.8,526.308a3.775,3.775,0,1,0-3.775-3.775A3.775,3.775,0,0,0,264.8,526.308Z" transform="translate(-235.059 -486.849)"/><circle cx="3.61" cy="3.61" r="3.61" transform="translate(32.073 32.075)"/><circle cx="3.082" cy="3.082" r="3.082" transform="translate(38.544 32.603)"/><path d="M322.776,527.983a2.209,2.209,0,1,0-2.209-2.209A2.209,2.209,0,0,0,322.776,527.983Z" transform="translate(-275.205 -490.09)"/><circle cx="1.236" cy="1.236" r="1.236" transform="translate(52.278 34.449)"/><path d="M198.33,547.921a.626.626,0,1,0-.626-.626A.626.626,0,0,0,198.33,547.921Z" transform="translate(-192.368 -505.666)"/><circle cx="1.582" cy="1.582" r="1.582" transform="translate(9.841 40.768) rotate(-22.386)"/><path d="M231.206,546.052a2.374,2.374,0,1,0-2.374-2.374A2.374,2.374,0,0,0,231.206,546.052Z" transform="translate(-213.355 -502.05)"/><path d="M248.224,545.418a2.967,2.967,0,1,0-2.967-2.967A2.967,2.967,0,0,0,248.224,545.418Z" transform="translate(-224.429 -500.822)"/><path d="M265.958,545.153a3.214,3.214,0,1,0-3.214-3.214A3.214,3.214,0,0,0,265.958,545.153Z" transform="translate(-236.22 -500.31)"/><circle cx="3.082" cy="3.082" r="3.082" transform="matrix(0.924, -0.383, 0.383, 0.924, 31.655, 39.961)"/><path d="M303.814,545.858a2.555,2.555,0,1,0-2.555-2.555A2.555,2.555,0,0,0,303.814,545.858Z" transform="translate(-262.187 -501.675)"/><path d="M323.7,546.7a1.764,1.764,0,1,0-1.764-1.764A1.764,1.764,0,0,0,323.7,546.7Z" transform="translate(-276.126 -503.312)"/><path d="M343.819,547.674a.857.857,0,1,0-.857-.857A.857.857,0,0,0,343.819,547.674Z" transform="translate(-290.305 -505.188)"/><path d="M215.928,565.832a.94.94,0,1,0-.939-.94A.939.939,0,0,0,215.928,565.832Z" transform="translate(-204.022 -517.32)"/><path d="M232.741,565.092a1.632,1.632,0,1,0-1.632-1.632A1.632,1.632,0,0,0,232.741,565.092Z" transform="translate(-214.89 -515.887)"/><path d="M249.93,564.545a2.143,2.143,0,1,0-2.143-2.143A2.143,2.143,0,0,0,249.93,564.545Z" transform="translate(-226.135 -514.83)"/><circle cx="2.341" cy="2.341" r="2.341" transform="translate(27.398 45.232)"/><path d="M286.284,564.475a2.209,2.209,0,1,0-2.208-2.209A2.209,2.209,0,0,0,286.284,564.475Z" transform="translate(-250.602 -514.693)"/><path d="M305.451,564.95a1.764,1.764,0,1,0-1.764-1.763A1.764,1.764,0,0,0,305.451,564.95Z" transform="translate(-263.824 -515.614)"/><path d="M325.027,565.638a1.121,1.121,0,1,0-1.121-1.121A1.121,1.121,0,0,0,325.027,565.638Z" transform="translate(-277.457 -516.944)"/><circle cx="0.758" cy="0.758" r="0.758" transform="translate(17.092 52.759)"/><path d="M251.976,583.848a1.154,1.154,0,1,0-1.154-1.154A1.153,1.153,0,0,0,251.976,583.848Z" transform="translate(-228.181 -529.178)"/><circle cx="1.319" cy="1.319" r="1.319" transform="translate(28.42 52.198)"/><path d="M288.3,583.76a1.236,1.236,0,1,0-1.236-1.236A1.236,1.236,0,0,0,288.3,583.76Z" transform="translate(-252.615 -529.007)"/><path d="M307.327,584.166a.857.857,0,1,0-.857-.857A.857.857,0,0,0,307.327,584.166Z" transform="translate(-265.701 -529.792)"/><ellipse cx="5.932" cy="6.157" rx="5.932" ry="6.157" transform="translate(23.806 23.444)"/><path d="M217.454,438.908a.2.2,0,1,0-.2-.2A.2.2,0,0,0,217.454,438.908Z" transform="translate(-205.549 -432.741)"/><path d="M199.2,457.146a.2.2,0,1,0-.2-.2A.2.2,0,0,0,199.2,457.146Z" transform="translate(-193.244 -445.037)"/><path d="M326.936,438.9a.2.2,0,1,1,.2-.2A.2.2,0,0,1,326.936,438.9Z" transform="translate(-279.365 -432.734)"/><path d="M345.182,457.146a.2.2,0,1,1,.2-.2A.2.2,0,0,1,345.182,457.146Z" transform="translate(-291.666 -445.037)"/><circle cx="0.19" cy="0.19" r="0.19" transform="translate(59.259 35.466)"/><circle cx="0.277" cy="0.277" r="0.277" transform="translate(59.173 29.452)"/><circle cx="0.19" cy="0.19" r="0.19" transform="translate(59.259 23.604)"/><circle cx="0.19" cy="0.19" r="0.19" transform="translate(0.087 35.466)"/><circle cx="0.277" cy="0.277" r="0.277" transform="translate(0 29.452)"/><circle cx="0.19" cy="0.19" r="0.19" transform="translate(0.087 23.604)"/><path d="M199.211,566.628a.2.2,0,1,1,.2-.2A.2.2,0,0,1,199.211,566.628Z" transform="translate(-193.249 -518.853)"/><path d="M217.461,584.863a.2.2,0,1,1,.2-.2A.2.2,0,0,1,217.461,584.863Z" transform="translate(-205.554 -531.147)"/></g></g></svg>