<svg xmlns="http://www.w3.org/2000/svg" width="365.878" height="277.245" viewBox="0 0 365.878 277.245"><g transform="translate(-419.535 -1451.232)"><path d="M555.461,1727.006,422.082,1650c-3.773-2.178-3.3-5.983,1.057-8.5l90.821-52.418c4.357-2.515,10.948-2.788,14.721-.61l133.379,77.006c3.773,2.179,3.3,5.984-1.057,8.5L570.182,1726.4C565.825,1728.911,559.234,1729.184,555.461,1727.006Z" fill="#efefef"/><path d="M693.3,1529.063,559.92,1452.057a5.382,5.382,0,0,0-4.52-.555l.009-.014-.243.092-.058.022-4.821,1.845,4.326,2.118c-.019.08-.044.154-.062.235l-21.725,98.893c-1.087,4.949,1.09,10.727,4.863,12.905l130.171,75.154-.464,5.517,5.269-2.042a7.4,7.4,0,0,0,3.772-5.366l21.725-98.893C699.25,1537.019,697.072,1531.241,693.3,1529.063Z" fill="#242424"/><path d="M693.3,1529.063,559.92,1452.057a5.382,5.382,0,0,0-4.52-.555l.009-.014-.243.092-.058.022-4.821,1.845,4.326,2.118c-.019.08-.044.154-.062.235l-14.318,65.176,65.261,50.845,92.018-37.443A10.349,10.349,0,0,0,693.3,1529.063Z" fill="#a8a8a8"/><path d="M688.27,1544.264l10.153-4.322c.187-3.932-1.441-7.995-4.113-10.167l-16.072,6.76Z" fill="#474747"/><path d="M662.763,1647.745l-133.38-77.007c-3.773-2.178-5.95-7.956-4.863-12.905l21.726-98.893c1.087-4.949,5.027-7.195,8.8-5.016l133.379,77.006c3.773,2.178,5.951,7.956,4.863,12.9l-21.725,98.893C670.476,1647.677,666.536,1649.923,662.763,1647.745Z" fill="#e3e3e3"/><path d="M689.706,1530.461l-133.379-77.006a5.272,5.272,0,0,0-5.252-.228,5.483,5.483,0,0,1,3.971.7l133.379,77.006c3.773,2.178,5.951,7.957,4.863,12.906l-21.725,98.891a7.51,7.51,0,0,1-3.549,5.245c2.252-.492,4.131-2.534,4.83-5.713l21.725-98.892C695.656,1538.418,693.479,1532.64,689.706,1530.461Z" fill="#fff"/><path d="M659.872,1640.389,534.431,1568c-3.453-1.994-5.445-7.281-4.45-11.81l19.88-90.494c.995-4.529,4.6-6.584,8.053-4.591l125.441,72.388c3.452,1.993,5.445,7.28,4.45,11.809l-19.88,90.495C666.93,1640.327,663.324,1642.382,659.872,1640.389Z" fill="#fff"/><path d="M659.872,1640.389,534.431,1568c-3.453-1.994-5.445-7.281-4.45-11.81l19.88-90.494c.995-4.529,4.6-6.584,8.053-4.591l125.441,72.388c3.452,1.993,5.445,7.28,4.45,11.809l-19.88,90.495C666.93,1640.327,663.324,1642.382,659.872,1640.389Z" fill="#242424"/><path d="M660.965,1639.944l-125.441-72.388c-3.453-1.993-5.445-7.281-4.45-11.809l19.88-90.495a6.945,6.945,0,0,1,3.161-4.764c-1.988.512-3.632,2.376-4.254,5.209l-19.88,90.494c-.995,4.529,1,9.817,4.45,11.81l125.441,72.388a4.817,4.817,0,0,0,4.891.172A5,5,0,0,1,660.965,1639.944Z" fill="#707070"/><path d="M664.6,1651.1l-18.232-2.407-117.691-67.949c-3.773-2.179-10.364-1.906-14.721.61l-83.4,48.131-11.025-1.456v6.255l.011,0c-.072,1.445.751,2.836,2.531,3.864l133.379,77.006c3.773,2.178,10.364,1.9,14.721-.61L661,1662.126c2.451-1.415,3.673-3.238,3.6-4.951h0Z" fill="#242424"/><path d="M576.175,1608.162l-8.362-4.827H475.884l-45.319,26.148-11.025-1.456v6.255l.011,0c-.072,1.445.751,2.836,2.531,3.864l133.379,77.006a13.8,13.8,0,0,0,7.6,1.424Z" fill="#a8a8a8"/><path d="M424.432,1628.673l-4.892-.646v6.255l.011,0c-.072,1.445.751,2.836,2.531,3.864l2.35,1.357Z" fill="#707070"/><path d="M556.8,1715.778a17.088,17.088,0,0,0,12.508-.776v-13.953H556.8Z" fill="#474747"/><path d="M555.461,1708.906,422.082,1631.9c-3.773-2.179-3.3-5.984,1.057-8.5l90.821-52.418c4.357-2.516,10.948-2.789,14.721-.611l133.379,77.007c3.773,2.178,3.3,5.983-1.057,8.5L570.182,1708.3C565.825,1710.811,559.234,1711.084,555.461,1708.906Z" fill="#e3e3e3"/><path d="M661,1653.593l-90.821,52.418c-4.357,2.515-10.948,2.789-14.721.611l-133.379-77.007a4.963,4.963,0,0,1-2.346-2.566c-.59,1.785.163,3.59,2.346,4.851l133.379,77.006c3.773,2.179,10.364,1.905,14.721-.61L661,1655.878c2.928-1.691,4.093-3.963,3.4-5.933A7.087,7.087,0,0,1,661,1653.593Z" fill="#fff"/><path d="M478.81,1606.406l-6.035-3.484c-.484-.28-.424-.769.136-1.092l7.123-4.112a2.1,2.1,0,0,1,1.891-.079l6.034,3.485c.485.279.424.768-.135,1.091l-7.124,4.113A2.1,2.1,0,0,1,478.81,1606.406Z" fill="#707070"/><path d="M488.13,1611.787,482.1,1608.3c-.485-.279-.424-.768.136-1.091l7.123-4.113a2.1,2.1,0,0,1,1.89-.078l6.035,3.484c.485.28.424.769-.136,1.092l-7.123,4.112A2.1,2.1,0,0,1,488.13,1611.787Z" fill="#707070"/><path d="M497.449,1617.167l-6.035-3.484c-.484-.279-.423-.768.136-1.091l7.123-4.113a2.1,2.1,0,0,1,1.891-.078l6.035,3.484c.484.28.423.768-.136,1.091l-7.123,4.113A2.1,2.1,0,0,1,497.449,1617.167Z" fill="#707070"/><path d="M510.339,1612.724l-6.035-3.484c-.484-.28-.424-.769.136-1.092l5.979-3.452a2.105,2.105,0,0,1,1.891-.079l6.035,3.485c.484.28.423.768-.136,1.091l-5.98,3.452A2.1,2.1,0,0,1,510.339,1612.724Z" fill="#707070"/><path d="M519.658,1618.1l-6.034-3.485c-.485-.279-.424-.768.135-1.091l5.98-3.452a2.1,2.1,0,0,1,1.89-.079l6.035,3.484c.485.28.424.769-.135,1.092l-5.98,3.452A2.1,2.1,0,0,1,519.658,1618.1Z" fill="#707070"/><path d="M528.978,1623.485,522.943,1620c-.484-.28-.423-.768.136-1.091l5.98-3.453a2.1,2.1,0,0,1,1.89-.078l6.035,3.484c.484.28.424.769-.136,1.092l-5.979,3.452A2.1,2.1,0,0,1,528.978,1623.485Z" fill="#707070"/><path d="M538.3,1628.866l-6.035-3.484c-.485-.28-.424-.769.136-1.092l5.979-3.452a2.1,2.1,0,0,1,1.891-.078l6.035,3.484c.484.28.423.768-.136,1.091l-5.98,3.453A2.1,2.1,0,0,1,538.3,1628.866Z" fill="#707070"/><path d="M547.617,1634.247l-6.034-3.485c-.485-.279-.424-.768.135-1.091l5.98-3.452a2.1,2.1,0,0,1,1.89-.079l6.035,3.485c.485.279.424.768-.135,1.091l-5.98,3.452A2.1,2.1,0,0,1,547.617,1634.247Z" fill="#707070"/><path d="M556.937,1639.627l-6.035-3.484c-.484-.28-.424-.768.136-1.091l5.98-3.453a2.1,2.1,0,0,1,1.89-.078l6.035,3.484c.484.28.424.769-.136,1.092l-5.979,3.452A2.1,2.1,0,0,1,556.937,1639.627Z" fill="#707070"/><path d="M566.257,1645.008l-6.035-3.484c-.485-.28-.424-.769.136-1.092l5.979-3.452a2.1,2.1,0,0,1,1.891-.078l6.034,3.484c.485.28.424.768-.135,1.091l-5.98,3.453A2.1,2.1,0,0,1,566.257,1645.008Z" fill="#707070"/><path d="M575.576,1650.389l-6.034-3.484c-.485-.28-.424-.769.135-1.092l5.98-3.452a2.1,2.1,0,0,1,1.89-.078l6.035,3.484c.485.279.424.768-.136,1.091l-5.979,3.452A2.1,2.1,0,0,1,575.576,1650.389Z" fill="#707070"/><path d="M584.9,1655.769l-6.035-3.484c-.484-.279-.424-.768.136-1.091l5.98-3.453a2.1,2.1,0,0,1,1.89-.078l6.035,3.484c.484.28.424.769-.136,1.092l-5.979,3.452A2.1,2.1,0,0,1,584.9,1655.769Z" fill="#707070"/><path d="M594.216,1661.15l-6.035-3.484c-.485-.28-.424-.768.136-1.091l5.979-3.453a2.1,2.1,0,0,1,1.891-.078l6.034,3.484c.485.28.424.769-.135,1.091l-5.98,3.453A2.1,2.1,0,0,1,594.216,1661.15Z" fill="#707070"/><path d="M524.071,1610.176l-6.035-3.484c-.485-.28-.424-.768.136-1.091l5.979-3.453a2.1,2.1,0,0,1,1.891-.078l6.035,3.484c.484.28.423.769-.136,1.092l-5.98,3.452A2.1,2.1,0,0,1,524.071,1610.176Z" fill="#707070"/><path d="M514.612,1604.715l-6.035-3.484c-.484-.28-.424-.768.136-1.091l5.979-3.453a2.1,2.1,0,0,1,1.891-.078l6.035,3.484c.484.28.424.769-.136,1.092l-5.98,3.452A2.1,2.1,0,0,1,514.612,1604.715Z" fill="#707070"/><path d="M505.138,1599.245l-13-7.5c-.484-.279-.423-.768.136-1.091l5.98-3.452a2.1,2.1,0,0,1,1.89-.079l13,7.5c.484.28.423.769-.136,1.092l-5.98,3.452A2.1,2.1,0,0,1,505.138,1599.245Z" fill="#707070"/><path d="M511.76,1592.593l-10.548-6.089c-.484-.28-.423-.769.136-1.092l5.98-3.452a2.1,2.1,0,0,1,1.89-.079l10.548,6.09c.484.28.424.769-.136,1.092l-5.979,3.452A2.1,2.1,0,0,1,511.76,1592.593Z" fill="#707070"/><path d="M533.391,1615.557l-6.035-3.484c-.485-.28-.424-.769.135-1.091l5.98-3.453a2.1,2.1,0,0,1,1.89-.078l6.035,3.484c.485.28.424.768-.136,1.091l-5.979,3.453A2.1,2.1,0,0,1,533.391,1615.557Z" fill="#707070"/><path d="M542.71,1620.938l-6.035-3.484c-.484-.28-.423-.769.136-1.092l5.98-3.452a2.1,2.1,0,0,1,1.89-.078l6.035,3.484c.484.279.424.768-.136,1.091l-5.979,3.453A2.1,2.1,0,0,1,542.71,1620.938Z" fill="#707070"/><path d="M552.03,1626.318l-6.035-3.484c-.485-.279-.424-.768.136-1.091l5.979-3.452a2.1,2.1,0,0,1,1.891-.079l6.035,3.484c.484.28.423.769-.136,1.092l-5.98,3.452A2.1,2.1,0,0,1,552.03,1626.318Z" fill="#707070"/><path d="M561.349,1631.7l-6.034-3.484c-.485-.28-.424-.768.135-1.091l5.98-3.453a2.1,2.1,0,0,1,1.89-.078l6.035,3.484c.485.28.424.769-.136,1.092l-5.979,3.452A2.1,2.1,0,0,1,561.349,1631.7Z" fill="#707070"/><path d="M570.669,1637.08l-6.035-3.484c-.484-.28-.423-.769.136-1.092l5.98-3.452a2.1,2.1,0,0,1,1.89-.078l6.035,3.484c.484.28.424.768-.136,1.091L572.56,1637A2.1,2.1,0,0,1,570.669,1637.08Z" fill="#707070"/><path d="M579.989,1642.461l-6.035-3.485c-.485-.279-.424-.768.136-1.091l5.979-3.452a2.1,2.1,0,0,1,1.891-.079l6.035,3.485c.484.279.423.768-.136,1.091l-5.98,3.452A2.1,2.1,0,0,1,579.989,1642.461Z" fill="#707070"/><path d="M589.308,1647.841l-6.034-3.484c-.485-.28-.424-.768.135-1.091l5.98-3.453a2.1,2.1,0,0,1,1.89-.078l6.035,3.484c.485.28.424.769-.136,1.092l-5.979,3.452A2.1,2.1,0,0,1,589.308,1647.841Z" fill="#707070"/><path d="M598.628,1653.222l-6.035-3.484c-.484-.28-.424-.769.136-1.092l5.979-3.452a2.1,2.1,0,0,1,1.891-.078l6.035,3.484c.484.28.424.768-.136,1.091l-5.979,3.453A2.1,2.1,0,0,1,598.628,1653.222Z" fill="#707070"/><path d="M607.948,1658.6l-6.035-3.484c-.485-.28-.424-.769.136-1.092l5.979-3.452a2.105,2.105,0,0,1,1.891-.079l6.034,3.485c.485.279.424.768-.135,1.091l-5.98,3.452A2.1,2.1,0,0,1,607.948,1658.6Z" fill="#707070"/><path d="M624.516,1668.169l-13.168-7.6c-.484-.28-.423-.768.136-1.091l5.98-3.453a2.1,2.1,0,0,1,1.89-.078l13.168,7.6c.484.28.423.769-.136,1.092l-5.98,3.452A2.1,2.1,0,0,1,624.516,1668.169Z" fill="#707070"/><path d="M642.66,1657.693l-11.114-6.417c-.484-.28-.423-.768.136-1.091l5.98-3.452a2.1,2.1,0,0,1,1.89-.079l11.114,6.417c.484.28.424.768-.136,1.091l-5.979,3.453A2.1,2.1,0,0,1,642.66,1657.693Z" fill="#707070"/><path d="M549.711,1614.5l-6.035-3.484c-.484-.28-.423-.768.136-1.091l5.98-3.453a2.1,2.1,0,0,1,1.89-.078l6.035,3.484c.484.28.424.769-.136,1.092l-5.979,3.452A2.1,2.1,0,0,1,549.711,1614.5Z" fill="#707070"/><path d="M540.16,1608.99l-6.035-3.484c-.485-.28-.424-.769.136-1.092l5.979-3.452a2.1,2.1,0,0,1,1.89-.079l6.035,3.485c.485.279.424.768-.135,1.091l-5.98,3.452A2.1,2.1,0,0,1,540.16,1608.99Z" fill="#707070"/><path d="M530.608,1603.475l-6.035-3.484c-.484-.28-.423-.768.136-1.091l5.98-3.453a2.1,2.1,0,0,1,1.89-.078l6.035,3.484c.484.28.424.769-.136,1.091L532.5,1603.4A2.1,2.1,0,0,1,530.608,1603.475Z" fill="#707070"/><path d="M521.057,1597.961l-6.035-3.485c-.485-.279-.424-.768.136-1.091l5.979-3.452a2.1,2.1,0,0,1,1.891-.079l6.034,3.485c.485.279.424.768-.135,1.091l-5.98,3.452A2.1,2.1,0,0,1,521.057,1597.961Z" fill="#707070"/><path d="M559.031,1619.885,553,1616.4c-.485-.28-.424-.769.136-1.092l5.979-3.452a2.1,2.1,0,0,1,1.891-.078l6.035,3.484c.484.28.423.768-.136,1.091l-5.98,3.453A2.1,2.1,0,0,1,559.031,1619.885Z" fill="#707070"/><path d="M568.351,1625.266l-6.035-3.484c-.485-.28-.424-.769.135-1.092l5.98-3.452a2.1,2.1,0,0,1,1.89-.079l6.035,3.485c.485.279.424.768-.135,1.091l-5.98,3.452A2.1,2.1,0,0,1,568.351,1625.266Z" fill="#707070"/><path d="M577.67,1630.646l-6.035-3.484c-.484-.28-.423-.768.136-1.091l5.98-3.452a2.1,2.1,0,0,1,1.89-.079l6.035,3.484c.485.28.424.769-.136,1.092l-5.979,3.452A2.1,2.1,0,0,1,577.67,1630.646Z" fill="#707070"/><path d="M586.99,1636.027l-6.035-3.484c-.485-.28-.424-.769.136-1.091L587.07,1628a2.1,2.1,0,0,1,1.891-.078l6.035,3.484c.484.28.423.768-.136,1.092l-5.98,3.452A2.1,2.1,0,0,1,586.99,1636.027Z" fill="#707070"/><path d="M596.31,1641.408l-6.035-3.484c-.485-.28-.424-.769.135-1.092l5.98-3.452a2.1,2.1,0,0,1,1.89-.078l6.035,3.484c.485.279.424.768-.135,1.091l-5.98,3.453A2.1,2.1,0,0,1,596.31,1641.408Z" fill="#707070"/><path d="M605.629,1646.789l-6.035-3.485c-.484-.279-.423-.768.136-1.091l5.98-3.452a2.1,2.1,0,0,1,1.89-.079l6.035,3.485c.484.279.424.768-.136,1.091l-5.979,3.452A2.1,2.1,0,0,1,605.629,1646.789Z" fill="#707070"/><path d="M614.949,1652.169l-6.035-3.484c-.485-.28-.424-.768.136-1.091l5.979-3.453a2.1,2.1,0,0,1,1.891-.078l6.035,3.484c.484.28.423.769-.136,1.092l-5.98,3.452A2.1,2.1,0,0,1,614.949,1652.169Z" fill="#707070"/><path d="M624.269,1657.55l-6.035-3.484c-.485-.28-.424-.769.135-1.092l5.98-3.452a2.1,2.1,0,0,1,1.89-.078l6.035,3.484c.485.28.424.768-.136,1.091l-5.979,3.453A2.1,2.1,0,0,1,624.269,1657.55Z" fill="#707070"/><path d="M633.588,1662.931l-6.035-3.485c-.484-.279-.423-.768.136-1.091l5.98-3.452a2.1,2.1,0,0,1,1.89-.079l6.035,3.485c.484.279.424.768-.136,1.091l-5.979,3.452A2.105,2.105,0,0,1,633.588,1662.931Z" fill="#707070"/><path d="M544.8,1601.195l-6.035-3.484c-.485-.28-.424-.768.136-1.091l5.979-3.452a2.1,2.1,0,0,1,1.891-.079l6.035,3.484c.484.28.423.769-.136,1.092l-5.98,3.452A2.1,2.1,0,0,1,544.8,1601.195Z" fill="#707070"/><path d="M535.531,1595.842l-6.035-3.485c-.485-.279-.424-.768.135-1.091l5.98-3.452a2.1,2.1,0,0,1,1.89-.079l6.035,3.484c.485.28.424.769-.135,1.092l-5.98,3.452A2.1,2.1,0,0,1,535.531,1595.842Z" fill="#707070"/><path d="M526.257,1590.488,520.222,1587c-.484-.279-.423-.768.136-1.091l5.98-3.452a2.1,2.1,0,0,1,1.89-.079l6.035,3.484c.485.28.424.769-.136,1.092l-5.979,3.452A2.105,2.105,0,0,1,526.257,1590.488Z" fill="#707070"/><path d="M516.984,1585.134l-6.035-3.485c-.484-.279-.424-.768.136-1.091l5.979-3.452a2.105,2.105,0,0,1,1.891-.079l6.035,3.485c.484.279.423.768-.136,1.091l-5.98,3.452A2.1,2.1,0,0,1,516.984,1585.134Z" fill="#707070"/><path d="M526.52,1579.628l-6.035-3.484c-.485-.28-.424-.768.136-1.092l1.976-1.141a2.1,2.1,0,0,1,1.891-.078l6.035,3.484c.484.28.423.769-.136,1.092l-1.977,1.141A2.1,2.1,0,0,1,526.52,1579.628Z" fill="#707070"/><path d="M538.621,1586.615l-6.034-3.484c-.485-.28-.424-.769.135-1.092l1.977-1.141a2.1,2.1,0,0,1,1.89-.078l6.035,3.484c.485.28.424.768-.136,1.092l-1.976,1.141A2.1,2.1,0,0,1,538.621,1586.615Z" fill="#707070"/><path d="M547.856,1591.947l-6.035-3.484c-.484-.28-.424-.769.136-1.092l1.977-1.141a2.1,2.1,0,0,1,1.89-.079l6.035,3.485c.484.279.424.768-.136,1.091l-1.977,1.141A2.1,2.1,0,0,1,547.856,1591.947Z" fill="#707070"/><path d="M557.091,1597.278l-6.035-3.484c-.485-.28-.424-.768.136-1.091l1.976-1.142a2.1,2.1,0,0,1,1.891-.078l6.034,3.484c.485.28.424.769-.135,1.092l-1.977,1.141A2.1,2.1,0,0,1,557.091,1597.278Z" fill="#707070"/><path d="M566.325,1602.61l-6.035-3.484c-.484-.28-.423-.769.136-1.092l1.977-1.141a2.1,2.1,0,0,1,1.89-.078l6.035,3.484c.485.28.424.768-.136,1.091l-1.976,1.142A2.1,2.1,0,0,1,566.325,1602.61Z" fill="#707070"/><path d="M617.881,1632.376l-6.035-3.485c-.484-.279-.424-.768.136-1.091l1.976-1.141a2.105,2.105,0,0,1,1.891-.079l6.035,3.485c.484.279.424.768-.136,1.091l-1.977,1.141A2.1,2.1,0,0,1,617.881,1632.376Z" fill="#707070"/><path d="M627.116,1637.707l-6.035-3.484c-.485-.28-.424-.768.135-1.091l1.977-1.142a2.1,2.1,0,0,1,1.891-.078l6.034,3.484c.485.28.424.769-.135,1.092l-1.977,1.141A2.1,2.1,0,0,1,627.116,1637.707Z" fill="#707070"/><path d="M636.35,1643.039l-6.035-3.484c-.484-.28-.423-.769.136-1.092l1.977-1.141a2.1,2.1,0,0,1,1.89-.078l6.035,3.484c.485.28.424.768-.136,1.091l-1.976,1.141A2.1,2.1,0,0,1,636.35,1643.039Z" fill="#707070"/><path d="M645.585,1648.371l-6.035-3.485c-.485-.279-.424-.768.136-1.091l1.976-1.141a2.1,2.1,0,0,1,1.891-.079l6.035,3.485c.484.279.424.768-.136,1.091l-1.977,1.141A2.1,2.1,0,0,1,645.585,1648.371Z" fill="#707070"/><path d="M554.123,1606.576l-6.034-3.484c-.485-.28-.424-.768.135-1.091l5.98-3.453a2.1,2.1,0,0,1,1.89-.078l6.035,3.484c.485.28.424.768-.136,1.092l-5.979,3.452A2.1,2.1,0,0,1,554.123,1606.576Z" fill="#707070"/><path d="M563.443,1611.957l-6.035-3.484c-.484-.28-.423-.769.136-1.092l5.98-3.452a2.1,2.1,0,0,1,1.89-.078l6.035,3.484c.484.28.424.768-.136,1.091l-5.979,3.453A2.1,2.1,0,0,1,563.443,1611.957Z" fill="#707070"/><path d="M572.763,1617.338l-6.035-3.485c-.485-.279-.424-.768.136-1.091l5.979-3.452a2.1,2.1,0,0,1,1.891-.079l6.035,3.485c.484.279.423.768-.136,1.091l-5.98,3.452A2.1,2.1,0,0,1,572.763,1617.338Z" fill="#707070"/><path d="M582.082,1622.718l-6.034-3.484c-.485-.28-.424-.768.135-1.091l5.98-3.453a2.1,2.1,0,0,1,1.89-.078l6.035,3.484c.485.28.424.769-.136,1.092l-5.979,3.452A2.1,2.1,0,0,1,582.082,1622.718Z" fill="#707070"/><path d="M591.4,1628.1l-6.035-3.484c-.484-.28-.424-.769.136-1.092l5.979-3.452a2.1,2.1,0,0,1,1.891-.078l6.035,3.484c.484.28.424.768-.136,1.091l-5.98,3.453A2.1,2.1,0,0,1,591.4,1628.1Z" fill="#707070"/><path d="M600.722,1633.48l-6.035-3.485c-.485-.279-.424-.768.136-1.091l5.979-3.452a2.1,2.1,0,0,1,1.891-.079l6.034,3.485c.485.279.424.768-.135,1.091l-5.98,3.452A2.1,2.1,0,0,1,600.722,1633.48Z" fill="#707070"/><path d="M610.041,1638.86l-6.034-3.484c-.485-.28-.424-.768.135-1.091l5.98-3.453a2.1,2.1,0,0,1,1.89-.078l6.035,3.484c.485.28.424.769-.136,1.092l-5.979,3.452A2.1,2.1,0,0,1,610.041,1638.86Z" fill="#707070"/><path d="M619.361,1644.241l-6.035-3.484c-.484-.28-.424-.768.136-1.092l5.979-3.452a2.1,2.1,0,0,1,1.891-.078l6.035,3.484c.484.28.424.768-.136,1.091l-5.98,3.453A2.1,2.1,0,0,1,619.361,1644.241Z" fill="#707070"/><path d="M628.681,1649.622l-6.035-3.484c-.485-.28-.424-.769.136-1.092l5.979-3.452a2.1,2.1,0,0,1,1.891-.078l6.034,3.484c.485.28.424.768-.135,1.091l-5.98,3.452A2.1,2.1,0,0,1,628.681,1649.622Z" fill="#707070"/><path d="M500.841,1607.241l-17.773-10.262c-.484-.28-.424-.768.136-1.091l5.98-3.453a2.1,2.1,0,0,1,1.89-.078l17.773,10.261c.485.28.424.769-.136,1.092l-5.979,3.452A2.1,2.1,0,0,1,500.841,1607.241Z" fill="#707070"/><path d="M615.336,1673.344l-17.774-10.262c-.484-.279-.423-.768.136-1.091l5.98-3.452a2.1,2.1,0,0,1,1.89-.079l17.773,10.262c.485.279.424.768-.135,1.091l-5.98,3.452A2.1,2.1,0,0,1,615.336,1673.344Z" fill="#707070"/><path d="M578.065,1663.711l-6.035-3.484c-.484-.28-.424-.769.136-1.092l7.123-4.112a2.105,2.105,0,0,1,1.891-.079l6.035,3.485c.484.279.423.768-.136,1.091l-7.124,4.113A2.1,2.1,0,0,1,578.065,1663.711Z" fill="#707070"/><path d="M510.386,1624.636l-9.652-5.572c-.484-.28-.424-.769.136-1.092l7.123-4.112a2.1,2.1,0,0,1,1.891-.079l9.651,5.573c.485.279.424.768-.136,1.091l-7.123,4.113A2.1,2.1,0,0,1,510.386,1624.636Z" fill="#707070"/><path d="M569.085,1658.527l-9.651-5.573c-.484-.279-.424-.768.136-1.091l7.123-4.113a2.1,2.1,0,0,1,1.89-.078l9.652,5.572c.484.28.424.769-.136,1.092l-7.123,4.112A2.1,2.1,0,0,1,569.085,1658.527Z" fill="#707070"/><path d="M523.832,1632.4l-9.652-5.572c-.484-.28-.423-.768.136-1.091l7.123-4.113a2.1,2.1,0,0,1,1.891-.078l9.651,5.572c.485.28.424.768-.135,1.091l-7.124,4.113A2.1,2.1,0,0,1,523.832,1632.4Z" fill="#707070"/><path d="M523.4,1621.582l41.962,24.227a.575.575,0,0,1,0,1.089l-7.264,4.194a2.087,2.087,0,0,1-1.885,0l-41.962-24.227Z" fill="#707070"/><path d="M604.112,1673.467l6.722,3.881c.4.229.348.63-.111.9l-2.914,1.682a1.722,1.722,0,0,1-1.549.064l-6.723-3.881c-.4-.229-.347-.63.112-.9l2.913-1.682A1.72,1.72,0,0,1,604.112,1673.467Z" fill="#707070"/><path d="M594.715,1668.041l6.722,3.882c.4.229.348.629-.111.894l-2.914,1.683a1.724,1.724,0,0,1-1.549.064l-6.723-3.881c-.4-.23-.347-.63.112-.9l2.914-1.682A1.722,1.722,0,0,1,594.715,1668.041Z" fill="#707070"/><path d="M585.4,1662.661l6.723,3.881c.4.229.347.63-.112.894l-2.913,1.683a1.723,1.723,0,0,1-1.55.064l-6.722-3.881c-.4-.229-.348-.63.111-.9l2.914-1.682A1.718,1.718,0,0,1,585.4,1662.661Z" fill="#707070"/><path d="M599.862,1665.07l6.722,3.881c.4.23.347.63-.111.895l-2.914,1.682a1.721,1.721,0,0,1-1.55.064l-6.722-3.881c-.4-.229-.347-.63.111-.894l2.914-1.683A1.726,1.726,0,0,1,599.862,1665.07Z" fill="#707070"/><path d="M636.675,1560.078l-50.2-28.983.646-3.263,50.2,28.983Z" fill="#fff"/><path d="M618.7,1565.585l-35.042-20.232.646-3.264,35.042,20.232Z" fill="#fff"/><path d="M615.38,1555.727l-30.316-17.5.646-3.263,30.316,17.5Z" fill="#a31418"/><path d="M635.265,1567.207l-15.158-8.751.646-3.263,15.158,8.751Z" fill="#e3e3e3"/><path d="M608.946,1527.725a1.892,1.892,0,0,1-2.726.839,2.372,2.372,0,0,1-.976-2.976,1.892,1.892,0,0,1,2.726-.84A2.373,2.373,0,0,1,608.946,1527.725Z" fill="#e3e3e3"/><path d="M615.475,1531.494a1.891,1.891,0,0,1-2.726.839,2.372,2.372,0,0,1-.976-2.976,1.892,1.892,0,0,1,2.726-.839A2.372,2.372,0,0,1,615.475,1531.494Z" fill="#fff"/><path d="M622,1535.264a1.892,1.892,0,0,1-2.725.839,2.373,2.373,0,0,1-.976-2.977,1.892,1.892,0,0,1,2.725-.839A2.373,2.373,0,0,1,622,1535.264Z" fill="#e3e3e3"/><path d="M628.532,1539.033a1.89,1.89,0,0,1-2.725.839,2.372,2.372,0,0,1-.976-2.976,1.891,1.891,0,0,1,2.725-.839A2.372,2.372,0,0,1,628.532,1539.033Z" fill="#a31418"/><rect width="7.429" height="16.032" transform="translate(784.883 1566.943) rotate(129.199)" fill="#707070"/><path d="M782.051,1572.816a5.807,5.807,0,0,0,3.32-4.071c.267-1.653-.785-2.512-2.351-1.917a5.809,5.809,0,0,0-3.32,4.071C779.433,1572.553,780.485,1573.411,782.051,1572.816Z" fill="#707070"/><rect width="12.039" height="16.376" transform="translate(776.086 1556.796) rotate(129.199)" fill="#707070"/><path d="M774.5,1558.478l4.205,3.429a9.614,9.614,0,0,1-4.7,5.758l-4.2-3.43A9.613,9.613,0,0,1,774.5,1558.478Z" fill="#a8a8a8"/><path d="M771.5,1566.312a9.406,9.406,0,0,0,5.379-6.6c.435-2.68-1.271-4.07-3.808-3.106a9.407,9.407,0,0,0-5.38,6.6C767.254,1565.885,768.959,1567.275,771.5,1566.312Z" fill="#707070"/><path d="M758.8,1555.958a9.408,9.408,0,0,0,5.38-6.6c.434-2.679-1.272-4.07-3.809-3.106a9.408,9.408,0,0,0-5.38,6.6C754.559,1555.531,756.264,1556.922,758.8,1555.958Z" fill="#707070"/><ellipse cx="3.405" cy="1.966" rx="3.405" ry="1.966" transform="translate(755.912 1552.503) rotate(-50.802)" fill="#e3e3e3"/><path d="M782.087,1568.1c.609.5,1.205.271,1.331-.505a2.726,2.726,0,0,0-.876-2.3c-.609-.5-1.2-.271-1.33.505A2.725,2.725,0,0,0,782.087,1568.1Z" fill="#e3e3e3"/><path d="M665.514,1681.381a11.225,11.225,0,0,1-5.8-1.663l-14.13-8.368a.9.9,0,0,1,.917-1.55l14.136,8.371a9.05,9.05,0,0,0,9.339.206,10.489,10.489,0,0,0,5.182-9.172c.019-9.247-1-20.719-2.078-32.865-3.364-37.9-7.178-80.855,16.727-86.971,10.572-2.707,18.647-5.572,25.136-7.874,18.682-6.632,25.676-9.113,44.978,8.838a.9.9,0,1,1-1.225,1.318c-18.5-17.206-24.711-15-43.151-8.461-6.523,2.315-14.641,5.2-25.293,7.921-22.421,5.739-18.679,47.886-15.378,85.07,1.082,12.188,2.1,23.7,2.084,33.027a12.288,12.288,0,0,1-6.1,10.736A10.845,10.845,0,0,1,665.514,1681.381Z" fill="#707070"/><ellipse cx="29.203" cy="16.86" rx="29.203" ry="16.86" transform="translate(696.949 1662.255)" fill="#efefef"/><path d="M740.084,1671.891a4.507,4.507,0,0,1,2.543,4.506,7.606,7.606,0,0,1-.371,2.2c-.523,1.1-2.239,2.606-4.977,1.524s-8.818-6.8-9.046-10.535C727.81,1662.644,735.753,1670.041,740.084,1671.891Z" fill="#242424"/><path d="M724,1683.38s.657,4.005.338,4.74-2.225,2.3-5.04,1.962-10.914-3.132-12.718-8.47c-2.8-8.275,15.634.621,15.634.621Z" fill="#242424"/><path d="M716.083,1619.352l-.627,62.525a4.38,4.38,0,0,0,3.406,4.334c.237.04.49.072.761.1a3.894,3.894,0,0,0,3.715-1.536,4.593,4.593,0,0,0,.836-2.525l.8-26.691,3.985-23.864,5.513,42.237a3.647,3.647,0,0,0,1.515,2.781,4.228,4.228,0,0,0,2.513.682,4.624,4.624,0,0,0,3.343-1.646,3.356,3.356,0,0,0,.8-2.262l-2.186-25.413-.813-32.415Z" fill="#242424"/><path d="M724.18,1563.385l.988,5.7a2.61,2.61,0,0,1-2.133,2.482c-2.171.539-2.842-.863-2.842-.863l-.981-6.416Z" fill="#ffc2b0"/><ellipse cx="8.251" cy="9.268" rx="8.251" ry="9.268" transform="matrix(0.715, -0.699, 0.699, 0.715, 706.019, 1556.838)" fill="#ffc2b0"/><path d="M723.921,1569.186c.151-.06,9.209-5.893,12.558.211,5.459,9.952,5.138,41.988,3.414,46.138-1.6,3.84-5.579,6.672-8.371,8.267a16.723,16.723,0,0,1-8.125,2.311c-2.831.023-8.259-2.494-8.062-6.194.907-17.019-.6-31.365-1.988-45.285C713.347,1574.634,715.084,1572.764,723.921,1569.186Z" fill="#707070"/><path d="M728.957,1631.691l5.513,42.237a3.648,3.648,0,0,0,1.515,2.781,4.145,4.145,0,0,0,.471.266c-1.145-.858-4.487-36.31-5.1-40.254S728.957,1631.691,728.957,1631.691Z" fill="#242424"/><path d="M694.955,1571.065l-4.922-16.121,2.6-1.078,5.8,12.633Z" fill="#ffc2b0"/><path d="M744.572,1558.359l-3.689-16.784-2.938.032,1.1,13.919Z" fill="#ffc2b0"/><path d="M713.347,1574.634s-8.843,1.764-14.467-8.533a1.4,1.4,0,0,0-2.333-.245c-.9,1.373-2.1,3.478-1.477,5.753,2.738,10.063,17.6,12.287,20.275,18.123S713.347,1574.634,713.347,1574.634Z" fill="#707070"/><path d="M729.667,1567.095s7,.538,8.012-5.523a46.328,46.328,0,0,0,.7-6.06,1.222,1.222,0,0,1,1.373-1.189c1.677.208,4.274.709,4.626,1.833.526,1.678,1.515,9.91-5.4,22.541C734.448,1586.972,729.667,1567.095,729.667,1567.095Z" fill="#707070"/><path d="M740.9,1541.617l-.067-1.914a3.952,3.952,0,0,0-.572-1.911l-1.94-3.186-.506-.638a1.475,1.475,0,0,0-1.939-.331l-.446.28a1.834,1.834,0,0,0-.853,1.669l1,2.724-1.268-.246a.451.451,0,0,0-.53.362h0a.452.452,0,0,0,.275.5l2.073.836,1.881,2.664Z" fill="#ffc2b0"/><path d="M689.962,1555.029l-.587-1.823a3.949,3.949,0,0,1-.111-1.992l.743-3.656.259-.771a1.474,1.474,0,0,1,1.711-.97l.515.112a1.833,1.833,0,0,1,1.369,1.28l-.018,2.9,1.109-.662a.451.451,0,0,1,.621.161h0a.451.451,0,0,1-.09.562l-1.665,1.49-.972,3.534Z" fill="#ffc2b0"/><path d="M717.489,1586.828c.807,3.678-1.456,32.22,5.908,39.285-2.831.023-8.259-2.494-8.062-6.194a226.142,226.142,0,0,0-.675-31.3c-2.888-3.741-10.831-6.124-15.8-10.921C699.221,1577.811,716.691,1583.189,717.489,1586.828Z" fill="#a8a8a8"/><path d="M727.179,1567.577l-1.258-1.292s-2.069,2.114-3.731,2.481a19.419,19.419,0,0,1-2.978.616l-.81,2.232S724.99,1571.142,727.179,1567.577Z" fill="#fff"/><path d="M717.9,1560.953a1.063,1.063,0,0,1-.977,0c-.535-.282-1.4-2.411-2.517-2.256-1.742.244-4.264,3.9-7.4-1.2-1.632-2.651-.675-4.083-1.469-5.588,0,0,.279.817,7.116-3.355s12.426.912,14.159,3.82,2.858,8.591-1.629,11.8c-.743.531-5.531-.418-5.63-.819s1.184-1.046.459-1.984A1.5,1.5,0,0,0,717.9,1560.953Z" fill="#a31418"/></g></svg>