<svg xmlns="http://www.w3.org/2000/svg" width="282.847" height="293.029" viewBox="0 0 282.847 293.029"><g transform="translate(-1176.103 -1440.723)"><path d="M1347,1591.769h0A30.53,30.53,0,0,1,1332.9,1617.5l-27.73,17.711" fill="none" stroke="#707070" stroke-linecap="round" stroke-linejoin="round" stroke-width="2"/><path d="M1392.308,1617.265v5.59a30.528,30.528,0,0,1-15.116,26.352l-72.035,42.131" fill="none" stroke="#707070" stroke-linecap="round" stroke-linejoin="round" stroke-width="2"/><path d="M1347,1591.769a1.129,1.129,0,0,1-1.129-1.129v-46.464a1.129,1.129,0,1,1,2.258,0v46.464A1.129,1.129,0,0,1,1347,1591.769Z" fill="#707070"/><rect width="8.072" height="17.419" transform="translate(1342.959 1541.254)" fill="#707070"/><path d="M1349.849,1560.321a6.309,6.309,0,0,1-5.708,0c-1.576-.91-1.576-2.385,0-3.3a6.308,6.308,0,0,1,5.708,0C1351.425,1557.936,1351.425,1559.411,1349.849,1560.321Z" fill="#707070"/><rect width="13.081" height="27.321" transform="translate(1340.455 1516.977)" fill="#707070"/><path d="M1342.959,1544.12v5.9a10.442,10.442,0,0,0,8.072,0v-5.9A10.442,10.442,0,0,0,1342.959,1544.12Z" fill="#a8a8a8"/><path d="M1351.62,1546.968a10.222,10.222,0,0,1-9.249,0c-2.555-1.474-2.555-3.865,0-5.34a10.227,10.227,0,0,1,9.25,0C1354.174,1543.1,1354.174,1545.493,1351.62,1546.968Z" fill="#707070"/><path d="M1392.308,1617.265a1.129,1.129,0,0,1-1.129-1.129v-46.463a1.129,1.129,0,1,1,2.257,0v46.463A1.129,1.129,0,0,1,1392.308,1617.265Z" fill="#707070"/><rect width="8.072" height="17.419" transform="translate(1388.271 1566.75)" fill="#707070"/><path d="M1395.161,1585.817a6.308,6.308,0,0,1-5.708,0c-1.576-.91-1.576-2.385,0-3.3a6.309,6.309,0,0,1,5.708,0C1396.737,1583.432,1396.737,1584.907,1395.161,1585.817Z" fill="#707070"/><rect width="13.081" height="27.321" transform="translate(1385.767 1542.472)" fill="#707070"/><path d="M1388.271,1569.616v5.9a10.442,10.442,0,0,0,8.072,0v-5.9A10.443,10.443,0,0,0,1388.271,1569.616Z" fill="#a8a8a8"/><path d="M1396.932,1572.463a10.221,10.221,0,0,1-9.25,0c-2.554-1.474-2.554-3.865,0-5.34a10.221,10.221,0,0,1,9.25,0C1399.486,1568.6,1399.486,1570.989,1396.932,1572.463Z" fill="#707070"/><path d="M1436.352,1587.8l17.539-10.33-16.7-20.847-4.391,7.174Z" fill="#707070"/><path d="M1309,1473.389l27.991-16.1s-1.052,16.071-1.052,16.1-16.081,4.981-16.081,4.981Z" fill="#707070"/><path d="M1441.227,1535.382a17.616,17.616,0,0,0-6.057-2.244c-2.822-14.832-13.142-30.584-25.448-37.688a24.918,24.918,0,0,0-10.414-3.525c-1.68-17.977-14.18-38.408-29.359-47.172-7.93-4.578-15.124-5.119-20.432-2.316v-.014l-.258.148c-.135.076-.27.153-.4.233l-16.506,9.748,5.485,4.332c-4.924,2.151-8.035,7.673-8.035,15.835,0,15.052,10.567,33.354,23.6,40.88l87.824,62.713c9.788,5.651,17.723,1.07,17.723-10.232S1451.015,1541.033,1441.227,1535.382Z" fill="#707070"/><path d="M1330.615,1466.092l37.884-22.134c-7.354-3.836-14-4.152-18.982-1.521v-.014l-.258.148c-.135.076-.27.153-.4.233l-16.506,9.748,5.485,4.332C1334.394,1458.388,1331.843,1461.544,1330.615,1466.092Z" fill="#707070"/><path d="M1400.577,1531.207l27.641-16.221c-4.741-8.2-11.269-15.364-18.5-19.536-.957-.553-1.9-1.036-2.83-1.457l-35.159,20.561Z" fill="#707070"/><path d="M1340.14,1454.363l12.318,7.112,22.559-13.287a44.83,44.83,0,0,0-5.068-3.435,31.64,31.64,0,0,0-7.884-3.311Z" fill="#e3e3e3"/><path d="M1425.17,1510.213l-22.062,13,7.674,8.558,20.027-11.825A64.325,64.325,0,0,0,1425.17,1510.213Z" fill="#e3e3e3"/><path d="M1423.9,1545.59a17.621,17.621,0,0,0-6.057-2.244c-2.822-14.833-13.142-30.584-25.448-37.689a24.937,24.937,0,0,0-10.414-3.524c-1.68-17.977-14.18-38.408-29.36-47.172-16.324-9.425-29.557-1.785-29.557,17.064,0,.64.018,1.285.048,1.933-11.938-5.536-21.265.7-21.265,14.842,0,15.051,10.568,33.354,23.6,40.88l98.45,56.84c9.788,5.651,17.723,1.07,17.723-10.232S1433.686,1551.241,1423.9,1545.59Z" fill="#e3e3e3"/><path d="M1323.11,1473.958c-.03-.648-.048-1.293-.048-1.933,0-.027,0-.053,0-.079-6.595-2.565-12.262-1.449-15.819,2.666C1311.108,1471.432,1316.727,1471,1323.11,1473.958Z" fill="#fff"/><path d="M1425.339,1544.185a17.635,17.635,0,0,0-6.056-2.244c-2.822-14.832-13.143-30.584-25.449-37.688a24.9,24.9,0,0,0-10.414-3.524c-1.68-17.978-14.18-38.409-29.359-47.173-10.171-5.872-19.139-5.118-24.458.842,5.418-4.63,13.713-4.808,23.017.563,15.179,8.764,27.679,29.195,29.359,47.172a24.923,24.923,0,0,1,10.414,3.524c12.306,7.1,22.626,22.856,25.448,37.689a17.621,17.621,0,0,1,6.057,2.244c9.788,5.651,17.723,19.4,17.723,30.7,0,4.078-1.045,7.265-2.826,9.428,2.655-2.045,4.267-5.753,4.267-10.833C1443.062,1563.58,1435.127,1549.836,1425.339,1544.185Z" fill="#fff"/><path d="M1321.028,1478.447l7.4,3.431-.377-8.148c-.026-.572-.043-1.14-.043-1.7,0-7.274,2.2-12.547,6.183-14.85s9.654-1.566,15.953,2.071c13.548,7.822,25.367,26.862,26.907,43.347l.388,4.154,4.159.32a20,20,0,0,1,8.32,2.876c10.76,6.213,20.459,20.649,23.061,34.327l.652,3.424,3.443.539a12.807,12.807,0,0,1,4.349,1.642c8.266,4.773,15.249,16.868,15.249,26.412,0,3.572-.99,6.192-2.717,7.19s-4.49.544-7.584-1.242l-98.45-56.84c-11.453-6.612-21.129-23.371-21.129-36.6,0-5.189,1.531-9.142,4.2-10.847a7.185,7.185,0,0,1,3.924-1.049A14.8,14.8,0,0,1,1321.028,1478.447Z" fill="#242424"/><path d="M1370.163,1540.149l2.6-1.3-2.557-1.937Z" fill="#a21418"/><path d="M1362.363,1505.067l2.521-1.275.046,1.32Z" fill="#a21418"/><path d="M1377.572,1531.948l2.631-1.323-5.064-4.817Z" fill="#a21418"/><path d="M1372,1538.762l-12.3-7.242a2.62,2.62,0,0,1-1.126-2.067l.041-14.235,14.556,8.573-.041,14.235C1373.132,1538.8,1372.624,1539.129,1372,1538.762Z" fill="#a21418"/><path d="M1364.858,1503.808l-13.281,8.545c-.563.363-.108,1.714.748,2.218l13.563,7.988,13.563,7.988c.856.5,1.317-.307.758-1.331l-13.188-24.134C1366.452,1504.039,1365.431,1503.438,1364.858,1503.808Z" fill="#a21418"/><path d="M1369.363,1540.09l-12.3-7.242a2.619,2.619,0,0,1-1.126-2.068l.04-14.235,14.556,8.573-.041,14.235C1370.495,1540.128,1369.987,1540.457,1369.363,1540.09Z" fill="#ff2c2c"/><path d="M1362.221,1505.135l-13.28,8.545c-.564.363-.109,1.715.747,2.219l13.563,7.988,13.563,7.988c.856.5,1.318-.307.758-1.332l-13.187-24.133C1363.815,1505.367,1362.794,1504.766,1362.221,1505.135Z" fill="#ff2c2c"/><path d="M1345.756,1555.654c0,.8-.562,1.126-1.256.725a2.775,2.775,0,0,1-1.257-2.176c0-.8.563-1.126,1.257-.725A2.777,2.777,0,0,1,1345.756,1555.654Z" fill="#e3e3e3"/><path d="M1391.175,1581.521c0,.8-.563,1.126-1.257.725a2.776,2.776,0,0,1-1.256-2.176c0-.8.562-1.126,1.256-.725A2.776,2.776,0,0,1,1391.175,1581.521Z" fill="#e3e3e3"/><path d="M1249.831,1732.787l-67.68-38.592c-2.475-1.429-2.165-3.925.693-5.575l38.942-22.483c2.858-1.65,7.181-1.829,9.656-.4l67.681,38.592c2.475,1.429,2.164,3.925-.694,5.575l-38.941,22.483C1256.63,1734.037,1252.306,1734.216,1249.831,1732.787Z" fill="#efefef"/><path d="M1305.157,1691.338h0v-158l-62.814-16.44-11.57-6.68c-2.655-1.533-7.293-1.34-10.359.43l-10.795,6.232-33.5-.019,9.921,152.53a3,3,0,0,0,1.779,2.776l62.684,47.3c2.655,1.533,7.293,1.341,10.359-.43l41.775-24.118C1304.4,1693.891,1305.256,1692.569,1305.157,1691.338Z" fill="#a8a8a8"/><path d="M1225.967,1509.187a11.944,11.944,0,0,0-5.553,1.457l-10.795,6.232-33.5-.019v158.428a3,3,0,0,0,1.779,2.776l72.6,41.4a9.383,9.383,0,0,0,4.808,1.027l.748-159.418Z" fill="#e3e3e3"/><path d="M1251.167,1719.787a11.805,11.805,0,0,0,8.281-.094V1559.185h-8.281Z" fill="#707070"/><path d="M1250.5,1561.088l-72.6-41.4c-2.655-1.533-2.322-4.211.744-5.981l41.775-24.119c3.066-1.77,7.7-1.962,10.359-.429l72.605,41.4c2.655,1.533,2.323,4.211-.744,5.981l-41.775,24.119C1257.793,1562.429,1253.155,1562.621,1250.5,1561.088Z" fill="#e3e3e3"/><path d="M1302.634,1533.6l-41.775,24.119c-3.066,1.77-7.7,1.963-10.359.429l-72.6-41.4a4.005,4.005,0,0,1-1.325-1.176c-.912,1.468-.5,3.06,1.325,4.113l72.6,41.4c2.655,1.533,7.293,1.341,10.359-.429l41.775-24.119c2.383-1.376,3.107-3.3,2.069-4.806A5.781,5.781,0,0,1,1302.634,1533.6Z" fill="#fafdff"/><path d="M1252.554,1544.309l-48.339-28.02c-1.242-.717-1.087-1.971.348-2.8l19.549-11.286a5.383,5.383,0,0,1,4.847-.2l48.339,28.02c1.243.718,1.087,1.971-.348,2.8l-19.548,11.287A5.388,5.388,0,0,1,1252.554,1544.309Z" fill="#242424"/><path d="M1226.457,1517.547l-2.8-1.617c-.172-.1-.15-.272.048-.387l2.705-1.561a.742.742,0,0,1,.671-.028l2.8,1.617c.172.1.15.273-.048.387l-2.7,1.562A.746.746,0,0,1,1226.457,1517.547Z" fill="#e3e3e3"/><path d="M1235.815,1522.928l-2.8-1.617c-.172-.1-.15-.273.048-.387l2.7-1.562a.749.749,0,0,1,.671-.028l2.8,1.618c.172.1.15.272-.048.387l-2.705,1.561A.743.743,0,0,1,1235.815,1522.928Z" fill="#e3e3e3"/><path d="M1245.173,1528.309l-2.8-1.617c-.172-.1-.15-.273.048-.387l2.7-1.562a.749.749,0,0,1,.671-.028l2.8,1.617c.172.1.15.273-.048.388l-2.7,1.561A.746.746,0,0,1,1245.173,1528.309Z" fill="#e3e3e3"/><path d="M1254.531,1533.69l-2.8-1.617c-.172-.1-.151-.273.048-.388l2.705-1.561a.744.744,0,0,1,.67-.028l2.8,1.617c.171.1.15.273-.049.388l-2.7,1.561A.746.746,0,0,1,1254.531,1533.69Z" fill="#e3e3e3"/><path d="M1204.215,1516.289l.057.033c.095-.067.182-.137.291-.2l19.549-11.286a5.382,5.382,0,0,1,4.847-.2l48.282,27.987c1.145-.82,1.205-1.936.057-2.6L1228.959,1502a5.383,5.383,0,0,0-4.847.2l-19.549,11.286C1203.128,1514.318,1202.973,1515.572,1204.215,1516.289Z" fill="#707070"/><path d="M1269.016,1592.392l27.484-15.736a6.7,6.7,0,0,0,2.8-5.35v-9.829c0-2.062-1.253-3.01-2.8-2.117l-27.484,15.736a6.709,6.709,0,0,0-2.8,5.351v9.828C1266.216,1592.337,1267.47,1593.285,1269.016,1592.392Z" fill="#242424"/><path d="M1297.86,1559.064a2.74,2.74,0,0,1,.7,2.045v9.828a6.709,6.709,0,0,1-2.8,5.351l-27.484,15.736a2.014,2.014,0,0,1-1.36.3,1.669,1.669,0,0,0,2.1.072l27.484-15.736a6.7,6.7,0,0,0,2.8-5.35v-9.829C1299.3,1560.077,1298.716,1559.209,1297.86,1559.064Z" fill="#fff"/><path d="M1277.282,1581.716l2.522-1.456a1.463,1.463,0,0,0,.61-1.166V1576.4c0-.45-.273-.656-.61-.462l-2.522,1.456a1.461,1.461,0,0,0-.61,1.166v2.693C1276.672,1581.7,1276.945,1581.91,1277.282,1581.716Z" fill="#a8a8a8"/><path d="M1285.712,1576.848l2.522-1.455a1.462,1.462,0,0,0,.61-1.166v-2.693c0-.45-.273-.656-.61-.462l-2.522,1.456a1.461,1.461,0,0,0-.61,1.166v2.693C1285.1,1576.836,1285.375,1577.043,1285.712,1576.848Z" fill="#fff"/><path d="M1269.016,1663.415l27.484-15.736a6.706,6.706,0,0,0,2.8-5.351V1632.5c0-2.063-1.253-3.01-2.8-2.117l-27.484,15.736a6.705,6.705,0,0,0-2.8,5.35v9.829C1266.216,1663.36,1267.47,1664.308,1269.016,1663.415Z" fill="#242424"/><path d="M1297.86,1630.086a2.743,2.743,0,0,1,.7,2.045v9.829a6.707,6.707,0,0,1-2.8,5.35l-27.484,15.736a2.021,2.021,0,0,1-1.36.3,1.672,1.672,0,0,0,2.1.072l27.484-15.736a6.706,6.706,0,0,0,2.8-5.351V1632.5C1299.3,1631.1,1298.716,1630.232,1297.86,1630.086Z" fill="#fff"/><path d="M1277.282,1652.738l2.522-1.456a1.459,1.459,0,0,0,.61-1.166v-2.693c0-.449-.273-.656-.61-.461l-2.522,1.455a1.463,1.463,0,0,0-.61,1.166v2.693C1276.672,1652.726,1276.945,1652.933,1277.282,1652.738Z" fill="#a8a8a8"/><path d="M1285.712,1647.871l2.522-1.456a1.461,1.461,0,0,0,.61-1.166v-2.693c0-.449-.273-.656-.61-.461l-2.522,1.455a1.462,1.462,0,0,0-.61,1.166v2.693C1285.1,1647.859,1285.375,1648.065,1285.712,1647.871Z" fill="#fff"/><path d="M1269.016,1698.926l27.484-15.736a6.7,6.7,0,0,0,2.8-5.351v-9.828c0-2.062-1.253-3.01-2.8-2.117l-27.484,15.736a6.707,6.707,0,0,0-2.8,5.35v9.829C1266.216,1698.871,1267.47,1699.819,1269.016,1698.926Z" fill="#242424"/><path d="M1297.86,1665.6a2.739,2.739,0,0,1,.7,2.044v9.829a6.706,6.706,0,0,1-2.8,5.35l-27.484,15.736a2.016,2.016,0,0,1-1.36.3,1.669,1.669,0,0,0,2.1.072l27.484-15.736a6.706,6.706,0,0,0,2.8-5.351v-9.828C1299.3,1666.611,1298.716,1665.743,1297.86,1665.6Z" fill="#fff"/><path d="M1277.282,1688.249l2.522-1.455a1.463,1.463,0,0,0,.61-1.167v-2.693c0-.449-.273-.656-.61-.461l-2.522,1.456a1.46,1.46,0,0,0-.61,1.166v2.693C1276.672,1688.237,1276.945,1688.444,1277.282,1688.249Z" fill="#a8a8a8"/><path d="M1285.712,1683.382l2.522-1.456a1.459,1.459,0,0,0,.61-1.166v-2.693c0-.449-.273-.656-.61-.461l-2.522,1.455a1.463,1.463,0,0,0-.61,1.167v2.693C1285.1,1683.37,1285.375,1683.577,1285.712,1683.382Z" fill="#fff"/><path d="M1269.016,1627.9l27.484-15.736a6.706,6.706,0,0,0,2.8-5.351v-9.829c0-2.062-1.253-3.009-2.8-2.117l-27.484,15.736a6.709,6.709,0,0,0-2.8,5.351v9.828C1266.216,1627.849,1267.47,1628.8,1269.016,1627.9Z" fill="#242424"/><path d="M1297.86,1594.575a2.742,2.742,0,0,1,.7,2.045v9.829a6.707,6.707,0,0,1-2.8,5.35l-27.484,15.736a2.014,2.014,0,0,1-1.36.3,1.671,1.671,0,0,0,2.1.073l27.484-15.736a6.706,6.706,0,0,0,2.8-5.351v-9.829C1299.3,1595.588,1298.716,1594.721,1297.86,1594.575Z" fill="#fff"/><path d="M1277.282,1617.227l2.522-1.456a1.461,1.461,0,0,0,.61-1.166v-2.693c0-.45-.273-.656-.61-.461l-2.522,1.455a1.462,1.462,0,0,0-.61,1.166v2.693C1276.672,1617.215,1276.945,1617.421,1277.282,1617.227Z" fill="#a8a8a8"/><path d="M1285.712,1612.36l2.522-1.456a1.463,1.463,0,0,0,.61-1.166v-2.693c0-.45-.273-.656-.61-.462l-2.522,1.456a1.463,1.463,0,0,0-.61,1.166v2.693C1285.1,1612.348,1285.375,1612.554,1285.712,1612.36Z" fill="#fff"/><path d="M1245.211,1582.331l-63.407-36.608a6.154,6.154,0,0,1-2.57-4.91v-12.091c0-1.892,1.15-2.762,2.57-1.943l63.407,36.609a6.153,6.153,0,0,1,2.57,4.91v12.091C1247.781,1582.281,1246.631,1583.151,1245.211,1582.331Z" fill="#707070"/><path d="M1243.391,1578.092l-59.767-34.507a3.123,3.123,0,0,1-1.3-2.491V1532c0-.96.584-1.4,1.3-.985l59.767,34.506a3.125,3.125,0,0,1,1.3,2.492v9.089C1244.695,1578.066,1244.111,1578.508,1243.391,1578.092Z" fill="#e3e3e3" opacity="0.4"/><path d="M1196.079,1546.181l-8.919-5.15a3.03,3.03,0,0,1-1.266-2.419h0c0-.932.567-1.36,1.266-.957l8.919,5.15a3.033,3.033,0,0,1,1.266,2.419h0C1197.345,1546.156,1196.778,1546.585,1196.079,1546.181Z" fill="#e3e3e3"/><path d="M1203.68,1548.881c0,.933-.654,1.311-1.462.845a3.233,3.233,0,0,1-1.461-2.532c0-.933.654-1.311,1.461-.845A3.231,3.231,0,0,1,1203.68,1548.881Z" fill="#242424"/><path d="M1208.838,1551.859c0,.932-.655,1.31-1.462.844a3.23,3.23,0,0,1-1.462-2.532c0-.932.654-1.31,1.462-.844A3.232,3.232,0,0,1,1208.838,1551.859Z" fill="#242424"/><path d="M1213.995,1554.837c0,.932-.655,1.31-1.462.844a3.234,3.234,0,0,1-1.462-2.532c0-.933.655-1.31,1.462-.844A3.231,3.231,0,0,1,1213.995,1554.837Z" fill="#e3e3e3"/><path d="M1219.152,1557.814c0,.932-.654,1.31-1.462.844a3.233,3.233,0,0,1-1.462-2.532c0-.932.655-1.31,1.462-.844A3.23,3.23,0,0,1,1219.152,1557.814Z" fill="#242424"/><path d="M1240.877,1573.03l-3-1.735a1.944,1.944,0,0,1-.812-1.552v-3.179c0-.6.363-.873.812-.614l3,1.735a1.945,1.945,0,0,1,.813,1.552v3.179C1241.69,1573.014,1241.326,1573.289,1240.877,1573.03Z" fill="#242424"/><path d="M1245.211,1603.652l-63.407-36.608a6.154,6.154,0,0,1-2.57-4.91v-12.091c0-1.892,1.15-2.762,2.57-1.943l63.407,36.609a6.152,6.152,0,0,1,2.57,4.91v12.09C1247.781,1603.6,1246.631,1604.472,1245.211,1603.652Z" fill="#707070"/><path d="M1243.391,1599.413l-59.767-34.507a3.123,3.123,0,0,1-1.3-2.491v-9.09c0-.96.584-1.4,1.3-.985l59.767,34.506a3.123,3.123,0,0,1,1.3,2.491v9.09C1244.695,1599.387,1244.111,1599.829,1243.391,1599.413Z" fill="#e3e3e3" opacity="0.4"/><path d="M1196.079,1567.5l-8.919-5.15a3.031,3.031,0,0,1-1.266-2.419h0c0-.932.567-1.36,1.266-.957l8.919,5.15a3.034,3.034,0,0,1,1.266,2.419h0C1197.345,1567.477,1196.778,1567.906,1196.079,1567.5Z" fill="#e3e3e3"/><path d="M1203.68,1570.2c0,.933-.654,1.311-1.462.845a3.233,3.233,0,0,1-1.461-2.533c0-.932.654-1.31,1.461-.844A3.231,3.231,0,0,1,1203.68,1570.2Z" fill="#fff"/><path d="M1208.838,1573.18c0,.932-.655,1.31-1.462.844a3.23,3.23,0,0,1-1.462-2.532c0-.932.654-1.31,1.462-.844A3.233,3.233,0,0,1,1208.838,1573.18Z" fill="#242424"/><path d="M1213.995,1576.158c0,.932-.655,1.31-1.462.844a3.234,3.234,0,0,1-1.462-2.532c0-.933.655-1.311,1.462-.844A3.231,3.231,0,0,1,1213.995,1576.158Z" fill="#e3e3e3"/><path d="M1219.152,1579.135c0,.932-.654,1.31-1.462.844a3.233,3.233,0,0,1-1.462-2.532c0-.932.655-1.31,1.462-.844A3.229,3.229,0,0,1,1219.152,1579.135Z" fill="#242424"/><path d="M1240.877,1594.351l-3-1.735a1.944,1.944,0,0,1-.812-1.552v-3.179c0-.6.363-.873.812-.614l3,1.735a1.945,1.945,0,0,1,.813,1.552v3.179C1241.69,1594.335,1241.326,1594.61,1240.877,1594.351Z" fill="#242424"/><path d="M1245.211,1624.973l-63.407-36.608a6.154,6.154,0,0,1-2.57-4.91v-12.091c0-1.892,1.15-2.762,2.57-1.943l63.407,36.609a6.151,6.151,0,0,1,2.57,4.91v12.09C1247.781,1624.923,1246.631,1625.793,1245.211,1624.973Z" fill="#707070"/><path d="M1243.391,1620.734l-59.767-34.507a3.123,3.123,0,0,1-1.3-2.491v-9.09c0-.96.584-1.4,1.3-.985l59.767,34.506a3.123,3.123,0,0,1,1.3,2.491v9.09C1244.695,1620.708,1244.111,1621.149,1243.391,1620.734Z" fill="#e3e3e3" opacity="0.4"/><path d="M1196.079,1588.823l-8.919-5.15a3.03,3.03,0,0,1-1.266-2.419h0c0-.932.567-1.36,1.266-.957l8.919,5.15a3.033,3.033,0,0,1,1.266,2.419h0C1197.345,1588.8,1196.778,1589.227,1196.079,1588.823Z" fill="#e3e3e3"/><path d="M1203.68,1591.523c0,.933-.654,1.311-1.462.844a3.23,3.23,0,0,1-1.461-2.532c0-.932.654-1.31,1.461-.844A3.231,3.231,0,0,1,1203.68,1591.523Z" fill="#fff"/><path d="M1208.838,1594.5c0,.932-.655,1.31-1.462.844a3.23,3.23,0,0,1-1.462-2.532c0-.932.654-1.31,1.462-.844A3.233,3.233,0,0,1,1208.838,1594.5Z" fill="#242424"/><path d="M1213.995,1597.479c0,.932-.655,1.31-1.462.844a3.234,3.234,0,0,1-1.462-2.532c0-.933.655-1.311,1.462-.844A3.231,3.231,0,0,1,1213.995,1597.479Z" fill="#e3e3e3"/><path d="M1219.152,1600.456c0,.932-.654,1.31-1.462.844a3.233,3.233,0,0,1-1.462-2.532c0-.932.655-1.31,1.462-.844A3.23,3.23,0,0,1,1219.152,1600.456Z" fill="#242424"/><path d="M1240.877,1615.672l-3-1.735a1.944,1.944,0,0,1-.812-1.552v-3.179c0-.6.363-.873.812-.614l3,1.734a1.948,1.948,0,0,1,.813,1.553v3.179C1241.69,1615.656,1241.326,1615.931,1240.877,1615.672Z" fill="#242424"/><path d="M1245.211,1646.294l-63.407-36.608a6.154,6.154,0,0,1-2.57-4.91v-12.091c0-1.892,1.15-2.762,2.57-1.943l63.407,36.609a6.151,6.151,0,0,1,2.57,4.91v12.091C1247.781,1646.244,1246.631,1647.113,1245.211,1646.294Z" fill="#707070"/><path d="M1243.391,1642.055l-59.767-34.507a3.123,3.123,0,0,1-1.3-2.491v-9.09c0-.96.584-1.4,1.3-.985l59.767,34.506a3.124,3.124,0,0,1,1.3,2.492v9.089C1244.695,1642.029,1244.111,1642.47,1243.391,1642.055Z" fill="#e3e3e3" opacity="0.4"/><path d="M1196.079,1610.144l-8.919-5.15a3.031,3.031,0,0,1-1.266-2.419h0c0-.932.567-1.36,1.266-.957l8.919,5.15a3.034,3.034,0,0,1,1.266,2.419h0C1197.345,1610.119,1196.778,1610.548,1196.079,1610.144Z" fill="#e3e3e3"/><path d="M1203.68,1612.844c0,.933-.654,1.311-1.462.844a3.23,3.23,0,0,1-1.461-2.532c0-.932.654-1.31,1.461-.844A3.231,3.231,0,0,1,1203.68,1612.844Z" fill="#242424"/><path d="M1208.838,1615.822c0,.932-.655,1.31-1.462.844a3.23,3.23,0,0,1-1.462-2.532c0-.932.654-1.31,1.462-.844A3.232,3.232,0,0,1,1208.838,1615.822Z" fill="#242424"/><path d="M1213.995,1618.8c0,.933-.655,1.311-1.462.845a3.234,3.234,0,0,1-1.462-2.532c0-.933.655-1.311,1.462-.845A3.234,3.234,0,0,1,1213.995,1618.8Z" fill="#e3e3e3"/><path d="M1219.152,1621.777c0,.932-.654,1.31-1.462.844a3.233,3.233,0,0,1-1.462-2.532c0-.932.655-1.31,1.462-.844A3.23,3.23,0,0,1,1219.152,1621.777Z" fill="#242424"/><path d="M1240.877,1636.993l-3-1.735a1.944,1.944,0,0,1-.812-1.552v-3.179c0-.6.363-.873.812-.614l3,1.735a1.945,1.945,0,0,1,.813,1.552v3.179C1241.69,1636.977,1241.326,1637.252,1240.877,1636.993Z" fill="#e3e3e3"/><path d="M1245.211,1667.615l-63.407-36.608a6.154,6.154,0,0,1-2.57-4.91v-12.091c0-1.892,1.15-2.762,2.57-1.943l63.407,36.609a6.151,6.151,0,0,1,2.57,4.91v12.09C1247.781,1667.565,1246.631,1668.435,1245.211,1667.615Z" fill="#707070"/><path d="M1243.391,1663.376l-59.767-34.507a3.123,3.123,0,0,1-1.3-2.491v-9.09c0-.96.584-1.4,1.3-.985l59.767,34.506a3.123,3.123,0,0,1,1.3,2.491v9.09C1244.695,1663.35,1244.111,1663.791,1243.391,1663.376Z" fill="#e3e3e3" opacity="0.4"/><path d="M1196.079,1631.465l-8.919-5.15a3.03,3.03,0,0,1-1.266-2.419h0c0-.932.567-1.36,1.266-.957l8.919,5.15a3.034,3.034,0,0,1,1.266,2.419h0C1197.345,1631.44,1196.778,1631.869,1196.079,1631.465Z" fill="#e3e3e3"/><path d="M1203.68,1634.165c0,.933-.654,1.31-1.462.844a3.23,3.23,0,0,1-1.461-2.532c0-.932.654-1.31,1.461-.844A3.231,3.231,0,0,1,1203.68,1634.165Z" fill="#242424"/><path d="M1208.838,1637.143c0,.932-.655,1.31-1.462.844a3.23,3.23,0,0,1-1.462-2.532c0-.932.654-1.31,1.462-.844A3.233,3.233,0,0,1,1208.838,1637.143Z" fill="#fff"/><path d="M1213.995,1640.121c0,.932-.655,1.31-1.462.844a3.234,3.234,0,0,1-1.462-2.533c0-.932.655-1.31,1.462-.844A3.234,3.234,0,0,1,1213.995,1640.121Z" fill="#e3e3e3"/><path d="M1219.152,1643.1c0,.932-.654,1.31-1.462.844a3.233,3.233,0,0,1-1.462-2.532c0-.932.655-1.31,1.462-.844A3.229,3.229,0,0,1,1219.152,1643.1Z" fill="#fff"/><path d="M1240.877,1658.314l-3-1.735a1.944,1.944,0,0,1-.812-1.552v-3.179c0-.6.363-.873.812-.614l3,1.735a1.945,1.945,0,0,1,.813,1.552v3.179C1241.69,1658.3,1241.326,1658.573,1240.877,1658.314Z" fill="#e3e3e3"/><path d="M1245.211,1688.936l-63.407-36.608a6.154,6.154,0,0,1-2.57-4.91v-12.091c0-1.892,1.15-2.762,2.57-1.943l63.407,36.609a6.151,6.151,0,0,1,2.57,4.91v12.09C1247.781,1688.886,1246.631,1689.756,1245.211,1688.936Z" fill="#707070"/><path d="M1243.391,1684.7l-59.767-34.507a3.123,3.123,0,0,1-1.3-2.491v-9.09c0-.96.584-1.4,1.3-.985l59.767,34.506a3.123,3.123,0,0,1,1.3,2.491v9.09C1244.695,1684.671,1244.111,1685.112,1243.391,1684.7Z" fill="#e3e3e3" opacity="0.4"/><path d="M1196.079,1652.786l-8.919-5.15a3.032,3.032,0,0,1-1.266-2.419h0c0-.932.567-1.36,1.266-.957l8.919,5.15a3.033,3.033,0,0,1,1.266,2.419h0C1197.345,1652.761,1196.778,1653.19,1196.079,1652.786Z" fill="#e3e3e3"/><path d="M1203.68,1655.486c0,.933-.654,1.311-1.462.844a3.23,3.23,0,0,1-1.461-2.532c0-.932.654-1.31,1.461-.844A3.23,3.23,0,0,1,1203.68,1655.486Z" fill="#242424"/><path d="M1208.838,1658.464c0,.932-.655,1.31-1.462.844a3.23,3.23,0,0,1-1.462-2.532c0-.932.654-1.31,1.462-.844A3.232,3.232,0,0,1,1208.838,1658.464Z" fill="#242424"/><path d="M1213.995,1661.442c0,.932-.655,1.31-1.462.843a3.231,3.231,0,0,1-1.462-2.532c0-.932.655-1.31,1.462-.843A3.231,3.231,0,0,1,1213.995,1661.442Z" fill="#e3e3e3"/><path d="M1219.152,1664.419c0,.932-.654,1.31-1.462.844a3.233,3.233,0,0,1-1.462-2.532c0-.932.655-1.31,1.462-.844A3.23,3.23,0,0,1,1219.152,1664.419Z" fill="#242424"/><path d="M1240.877,1679.635l-3-1.735a1.944,1.944,0,0,1-.812-1.552v-3.179c0-.6.363-.873.812-.614l3,1.734a1.948,1.948,0,0,1,.813,1.553v3.179C1241.69,1679.619,1241.326,1679.894,1240.877,1679.635Z" fill="#242424"/><path d="M1245.211,1710.257l-63.407-36.608a6.154,6.154,0,0,1-2.57-4.91v-12.091c0-1.892,1.15-2.762,2.57-1.943l63.407,36.609a6.151,6.151,0,0,1,2.57,4.91v12.09C1247.781,1710.207,1246.631,1711.076,1245.211,1710.257Z" fill="#707070"/><path d="M1243.391,1706.018l-59.767-34.507a3.123,3.123,0,0,1-1.3-2.491v-9.09c0-.96.584-1.4,1.3-.985l59.767,34.506a3.123,3.123,0,0,1,1.3,2.491v9.09C1244.695,1705.992,1244.111,1706.433,1243.391,1706.018Z" fill="#e3e3e3" opacity="0.4"/><path d="M1196.079,1674.107l-8.919-5.15a3.031,3.031,0,0,1-1.266-2.419h0c0-.932.567-1.361,1.266-.957l8.919,5.15a3.034,3.034,0,0,1,1.266,2.419h0C1197.345,1674.082,1196.778,1674.511,1196.079,1674.107Z" fill="#e3e3e3"/><path d="M1205.31,1677.961c0,1.761-1.236,2.475-2.761,1.595a6.1,6.1,0,0,1-2.761-4.783c0-1.761,1.236-2.475,2.761-1.594A6.1,6.1,0,0,1,1205.31,1677.961Z" fill="#fff"/><path d="M1215.992,1684.212c0,.932-.654,1.31-1.462.844a3.233,3.233,0,0,1-1.462-2.532c0-.932.655-1.31,1.462-.844A3.23,3.23,0,0,1,1215.992,1684.212Z" fill="#242424"/><path d="M1221.15,1687.19c0,.932-.655,1.31-1.462.843a3.228,3.228,0,0,1-1.462-2.532c0-.932.654-1.31,1.462-.844A3.234,3.234,0,0,1,1221.15,1687.19Z" fill="#e3e3e3"/><path d="M1226.307,1690.167c0,.932-.655,1.31-1.462.844a3.232,3.232,0,0,1-1.462-2.532c0-.932.655-1.31,1.462-.844A3.232,3.232,0,0,1,1226.307,1690.167Z" fill="#242424"/><path d="M1240.877,1700.956l-3-1.735a1.944,1.944,0,0,1-.812-1.552v-3.179c0-.6.363-.873.812-.614l3,1.734a1.948,1.948,0,0,1,.813,1.553v3.179C1241.69,1700.94,1241.326,1701.215,1240.877,1700.956Z" fill="#e3e3e3"/></g></svg>