<svg xmlns="http://www.w3.org/2000/svg" width="29.188" height="23.707" viewBox="0 0 29.188 23.707"><path d="M26.188,53.99c.019.259.019.519.019.778,0,7.908-6.019,17.02-17.02,17.02A16.905,16.905,0,0,1,0,69.1a12.377,12.377,0,0,0,1.445.074,11.98,11.98,0,0,0,7.427-2.556,5.993,5.993,0,0,1-5.593-4.149,7.545,7.545,0,0,0,1.13.093,6.327,6.327,0,0,0,1.574-.2,5.983,5.983,0,0,1-4.8-5.871v-.074a6.025,6.025,0,0,0,2.7.759,5.991,5.991,0,0,1-1.852-8,17,17,0,0,0,12.335,6.26,6.753,6.753,0,0,1-.148-1.37,5.988,5.988,0,0,1,10.353-4.093,11.778,11.778,0,0,0,3.8-1.445,5.966,5.966,0,0,1-2.63,3.3,11.992,11.992,0,0,0,3.445-.926A12.859,12.859,0,0,1,26.188,53.99Z" transform="translate(0 -48.082)" fill="#fff"/></svg>