<svg xmlns="http://www.w3.org/2000/svg" xmlns:xlink="http://www.w3.org/1999/xlink" width="1920" height="868.095" viewBox="0 0 1920 868.095"><defs><clipPath id="a"><rect width="1920" height="868.095" transform="translate(0 1986.877)" fill="#f4f4f4"/></clipPath></defs><g transform="translate(0 -1986.877)" clip-path="url(#a)"><path d="M2049.275,2981.837a1.609,1.609,0,1,0-1.609-1.609A1.608,1.608,0,0,0,2049.275,2981.837Z" fill="#fff"/><path d="M2001.562,3029.55a1.609,1.609,0,1,0-1.609-1.609A1.609,1.609,0,0,0,2001.562,3029.55Z" fill="#fff"/><circle cx="1.528" cy="1.528" r="1.528" transform="translate(1809.41 3074.048)" fill="#fff"/><circle cx="2.223" cy="2.223" r="2.223" transform="translate(1856.296 3073.354)" fill="#fff"/><circle cx="1.528" cy="1.528" r="1.528" transform="translate(1904.63 3074.048)" fill="#fff"/><circle cx="1.528" cy="1.528" r="1.528" transform="translate(1809.41 2599.051)" fill="#fff"/><circle cx="2.223" cy="2.223" r="2.223" transform="translate(1856.296 2598.356)" fill="#fff"/><circle cx="1.528" cy="1.528" r="1.528" transform="translate(1904.63 2599.051)" fill="#fff"/><path d="M1763,2650.337a4.1,4.1,0,1,0-4.1-4.1A4.1,4.1,0,0,0,1763,2650.337Z" fill="#fff"/><path d="M1810.709,2653.38a7.144,7.144,0,1,0-7.145-7.145A7.144,7.144,0,0,0,1810.709,2653.38Z" fill="#fff"/><path d="M1858.422,2654.835a8.6,8.6,0,1,0-8.6-8.6A8.6,8.6,0,0,0,1858.422,2654.835Z" fill="#fff"/><path d="M1906.135,2654.042a7.806,7.806,0,1,0-7.806-7.807A7.806,7.806,0,0,0,1906.135,2654.042Z" fill="#fff"/><path d="M1953.849,2651.263a5.027,5.027,0,1,0-5.028-5.028A5.027,5.027,0,0,0,1953.849,2651.263Z" fill="#fff"/><path d="M1715.283,2700.035a6.086,6.086,0,1,0-6.087-6.086A6.086,6.086,0,0,0,1715.283,2700.035Z" fill="#fff"/><circle cx="11.378" cy="11.378" r="11.378" transform="translate(1751.617 2682.57)" fill="#fff"/><path d="M1810.709,2709.3a15.347,15.347,0,1,0-15.347-15.347A15.347,15.347,0,0,0,1810.709,2709.3Z" fill="#fff"/><circle cx="16.803" cy="16.803" r="16.803" transform="translate(1841.619 2677.146)" fill="#fff"/><circle cx="15.877" cy="15.877" r="15.877" transform="translate(1890.258 2678.072)" fill="#fff"/><circle cx="12.701" cy="12.701" r="12.701" transform="translate(1941.147 2681.247)" fill="#fff"/><path d="M2001.562,2701.49a7.542,7.542,0,1,0-7.542-7.541A7.542,7.542,0,0,0,2001.562,2701.49Z" fill="#fff"/><path d="M1667.569,2745.764a4.1,4.1,0,1,0-4.1-4.1A4.1,4.1,0,0,0,1667.569,2745.764Z" fill="#fff"/><path d="M1715.283,2753.041a11.379,11.379,0,1,0-11.379-11.379A11.379,11.379,0,0,0,1715.283,2753.041Z" fill="#fff"/><circle cx="17.862" cy="17.862" r="17.862" transform="translate(1745.134 2723.801)" fill="#fff"/><path d="M1810.709,2764.154a22.492,22.492,0,1,0-22.492-22.492A22.492,22.492,0,0,0,1810.709,2764.154Z" fill="#fff"/><circle cx="24.212" cy="24.212" r="24.212" transform="translate(1834.21 2717.45)" fill="#fff"/><path d="M1906.135,2764.816a23.154,23.154,0,1,0-23.153-23.154A23.154,23.154,0,0,0,1906.135,2764.816Z" fill="#fff"/><path d="M1953.849,2760.714a19.052,19.052,0,1,0-19.053-19.052A19.052,19.052,0,0,0,1953.849,2760.714Z" fill="#fff"/><path d="M2001.562,2754.76a13.1,13.1,0,1,0-13.1-13.1A13.1,13.1,0,0,0,2001.562,2754.76Z" fill="#fff"/><circle cx="6.086" cy="6.086" r="6.086" transform="translate(2043.189 2735.576)" fill="#fff"/><path d="M1667.569,2796.52a7.145,7.145,0,1,0-7.144-7.144A7.145,7.145,0,0,0,1667.569,2796.52Z" fill="#fff"/><path d="M1715.283,2804.723a15.347,15.347,0,1,0-15.348-15.347A15.347,15.347,0,0,0,1715.283,2804.723Z" fill="#fff"/><path d="M1763,2811.867a22.492,22.492,0,1,0-22.492-22.491A22.492,22.492,0,0,0,1763,2811.867Z" fill="#fff"/><path d="M1810.709,2816.763a27.387,27.387,0,1,0-27.387-27.387A27.387,27.387,0,0,0,1810.709,2816.763Z" fill="#fff"/><path d="M1858.422,2818.747a29.372,29.372,0,1,0-29.372-29.371A29.371,29.371,0,0,0,1858.422,2818.747Z" fill="#fff"/><path d="M1906.135,2817.557a28.181,28.181,0,1,0-28.181-28.181A28.182,28.182,0,0,0,1906.135,2817.557Z" fill="#fff"/><path d="M1953.849,2813.19a23.815,23.815,0,1,0-23.816-23.814A23.814,23.814,0,0,0,1953.849,2813.19Z" fill="#fff"/><path d="M2001.562,2806.575a17.2,17.2,0,1,0-17.2-17.2A17.2,17.2,0,0,0,2001.562,2806.575Z" fill="#fff"/><path d="M2049.275,2798.637a9.261,9.261,0,1,0-9.262-9.261A9.262,9.262,0,0,0,2049.275,2798.637Z" fill="#fff"/><path d="M1667.569,2845.688a8.6,8.6,0,1,0-8.6-8.6A8.6,8.6,0,0,0,1667.569,2845.688Z" fill="#fff"/><circle cx="16.803" cy="16.803" r="16.803" transform="translate(1693.352 2827.937) rotate(-22.35)" fill="#fff"/><circle cx="24.212" cy="24.212" r="24.212" transform="translate(1738.784 2812.876)" fill="#fff"/><path d="M1810.709,2866.461a29.372,29.372,0,1,0-29.372-29.373A29.372,29.372,0,0,0,1810.709,2866.461Z" fill="#fff"/><circle cx="32.151" cy="32.151" r="32.151" transform="translate(1826.271 2804.938)" fill="#fff"/><path d="M1906.135,2867.387a30.3,30.3,0,1,0-30.3-30.3A30.3,30.3,0,0,0,1906.135,2867.387Z" fill="#fff"/><path d="M1953.849,2862.888a25.8,25.8,0,1,0-25.8-25.8A25.8,25.8,0,0,0,1953.849,2862.888Z" fill="#fff"/><circle cx="18.788" cy="18.788" r="18.788" transform="translate(1982.774 2818.301)" fill="#fff"/><circle cx="10.585" cy="10.585" r="10.585" transform="matrix(0.38, -0.925, 0.925, 0.38, 2035.463, 2842.858)" fill="#fff"/><path d="M1667.569,2892.608a7.806,7.806,0,1,0-7.806-7.806A7.805,7.805,0,0,0,1667.569,2892.608Z" fill="#fff"/><circle cx="15.877" cy="15.877" r="15.877" transform="matrix(0.925, -0.38, 0.38, 0.925, 1694.56, 2876.158)" fill="#fff"/><path d="M1763,2907.956a23.154,23.154,0,1,0-23.154-23.154A23.154,23.154,0,0,0,1763,2907.956Z" fill="#fff"/><path d="M1810.709,2912.983a28.181,28.181,0,1,0-28.182-28.181A28.182,28.182,0,0,0,1810.709,2912.983Z" fill="#fff"/><path d="M1858.422,2915.1a30.3,30.3,0,1,0-30.3-30.3A30.3,30.3,0,0,0,1858.422,2915.1Z" fill="#fff"/><circle cx="28.975" cy="28.975" r="28.975" transform="translate(1877.16 2855.827)" fill="#fff"/><circle cx="24.741" cy="24.741" r="24.741" transform="translate(1929.107 2860.06)" fill="#fff"/><path d="M2001.562,2902.531a17.729,17.729,0,1,0-17.729-17.729A17.73,17.73,0,0,0,2001.562,2902.531Z" fill="#fff"/><circle cx="9.923" cy="9.923" r="9.923" transform="translate(2039.352 2874.879)" fill="#fff"/><path d="M1667.569,2937.542a5.027,5.027,0,1,0-5.027-5.027A5.027,5.027,0,0,0,1667.569,2937.542Z" fill="#fff"/><circle cx="12.701" cy="12.701" r="12.701" transform="translate(1698.701 2925.608) rotate(-22.386)" fill="#fff"/><path d="M1763,2951.567a19.052,19.052,0,1,0-19.053-19.052A19.052,19.052,0,0,0,1763,2951.567Z" fill="#fff"/><path d="M1810.709,2956.33a23.815,23.815,0,1,0-23.815-23.815A23.815,23.815,0,0,0,1810.709,2956.33Z" fill="#fff"/><path d="M1858.422,2958.315a25.8,25.8,0,1,0-25.8-25.8A25.8,25.8,0,0,0,1858.422,2958.315Z" fill="#fff"/><circle cx="24.742" cy="24.742" r="24.742" transform="translate(1873.809 2919.125) rotate(-22.5)" fill="#fff"/><path d="M1953.849,2953.022a20.507,20.507,0,1,0-20.508-20.507A20.507,20.507,0,0,0,1953.849,2953.022Z" fill="#fff"/><path d="M2001.562,2946.672a14.157,14.157,0,1,0-14.157-14.157A14.158,14.158,0,0,0,2001.562,2946.672Z" fill="#fff"/><path d="M2049.275,2939.4a6.88,6.88,0,1,0-6.88-6.88A6.88,6.88,0,0,0,2049.275,2939.4Z" fill="#fff"/><path d="M1715.283,2987.77a7.542,7.542,0,1,0-7.542-7.542A7.542,7.542,0,0,0,1715.283,2987.77Z" fill="#fff"/><path d="M1763,2993.326a13.1,13.1,0,1,0-13.1-13.1A13.1,13.1,0,0,0,1763,2993.326Z" fill="#fff"/><path d="M1810.709,2997.428a17.2,17.2,0,1,0-17.2-17.2A17.2,17.2,0,0,0,1810.709,2997.428Z" fill="#fff"/><circle cx="18.788" cy="18.788" r="18.788" transform="translate(1839.635 2961.44)" fill="#fff"/><path d="M1906.135,2997.957a17.729,17.729,0,1,0-17.729-17.729A17.729,17.729,0,0,0,1906.135,2997.957Z" fill="#fff"/><path d="M1953.849,2994.385a14.157,14.157,0,1,0-14.158-14.157A14.157,14.157,0,0,0,1953.849,2994.385Z" fill="#fff"/><path d="M2001.562,2989.225a9,9,0,1,0-9-9A9,9,0,0,0,2001.562,2989.225Z" fill="#fff"/><circle cx="6.086" cy="6.086" r="6.086" transform="translate(1756.91 3021.855)" fill="#fff"/><path d="M1810.709,3037.2a9.261,9.261,0,1,0-9.261-9.262A9.261,9.261,0,0,0,1810.709,3037.2Z" fill="#fff"/><circle cx="10.585" cy="10.585" r="10.585" transform="translate(1847.837 3017.357)" fill="#fff"/><path d="M1906.135,3037.864a9.923,9.923,0,1,0-9.923-9.923A9.923,9.923,0,0,0,1906.135,3037.864Z" fill="#fff"/><path d="M1953.849,3034.821a6.88,6.88,0,1,0-6.88-6.88A6.88,6.88,0,0,0,1953.849,3034.821Z" fill="#fff"/><ellipse cx="47.617" cy="49.422" rx="47.617" ry="49.422" transform="translate(1810.805 2786.547)" fill="#fff"/><path d="M1715.275,2647.859a1.608,1.608,0,1,0-1.609-1.609A1.609,1.609,0,0,0,1715.275,2647.859Z" fill="#fff"/><path d="M1667.547,2695.552a1.609,1.609,0,1,0-1.608-1.609A1.609,1.609,0,0,0,1667.547,2695.552Z" fill="#fff"/><path d="M2001.573,2647.832a1.609,1.609,0,1,1,1.609-1.609A1.609,1.609,0,0,1,2001.573,2647.832Z" fill="#fff"/><path d="M2049.285,2695.552a1.609,1.609,0,1,1,1.609-1.609A1.609,1.609,0,0,1,2049.285,2695.552Z" fill="#fff"/><circle cx="1.528" cy="1.528" r="1.528" transform="translate(2095.388 2883.049)" fill="#fff"/><circle cx="2.223" cy="2.223" r="2.223" transform="translate(2094.694 2834.774)" fill="#fff"/><circle cx="1.528" cy="1.528" r="1.528" transform="translate(2095.388 2787.83)" fill="#fff"/><circle cx="1.528" cy="1.528" r="1.528" transform="translate(1620.403 2883.049)" fill="#fff"/><circle cx="2.223" cy="2.223" r="2.223" transform="translate(1619.708 2834.774)" fill="#fff"/><circle cx="1.528" cy="1.528" r="1.528" transform="translate(1620.403 2787.83)" fill="#fff"/><path d="M1667.567,2981.85a1.609,1.609,0,1,1,1.609-1.609A1.609,1.609,0,0,1,1667.567,2981.85Z" fill="#fff"/><path d="M1715.291,3029.536a1.609,1.609,0,1,1,1.609-1.609A1.61,1.61,0,0,1,1715.291,3029.536Z" fill="#fff"/></g></svg>